<svg xmlns="http://www.w3.org/2000/svg" width="32" height="32" viewBox="0 0 32 32" fill="none"><path d="M16 3.19995C13.4684 3.19995 10.9936 3.95066 8.88867 5.35715C6.78372 6.76363 5.14311 8.76272 4.1743 11.1016C3.2055 13.4405 2.95201 16.0142 3.44591 18.4972C3.9398 20.9801 5.15888 23.2609 6.949 25.051C8.73912 26.8411 11.0199 28.0602 13.5028 28.5541C15.9858 29.048 18.5595 28.7945 20.8984 27.8257C23.2373 26.8569 25.2363 25.2163 26.6428 23.1113C28.0493 21.0064 28.8 18.5316 28.8 16C28.8 12.6052 27.4515 9.34947 25.051 6.949C22.6505 4.54852 19.3948 3.19995 16 3.19995ZM27.048 15.144H24.8C24.6166 14.5279 24.2392 13.9874 23.7238 13.6031C23.2085 13.2188 22.5829 13.0112 21.94 13.0112C21.2972 13.0112 20.6715 13.2188 20.1562 13.6031C19.6408 13.9874 19.2634 14.5279 19.08 15.144H16.856V12.16C16.856 11.933 16.7658 11.7152 16.6053 11.5547C16.4447 11.3942 16.227 11.304 16 11.304C15.6605 11.304 15.3349 11.1691 15.0949 10.9291C14.8548 10.689 14.72 10.3634 14.72 10.024C14.72 9.68449 14.8548 9.35892 15.0949 9.11887C15.3349 8.87882 15.6605 8.74397 16 8.74397C16.112 8.74502 16.2232 8.72387 16.327 8.68173C16.4308 8.63959 16.5252 8.57729 16.6048 8.49844C16.6844 8.41959 16.7476 8.32575 16.7907 8.22234C16.8338 8.11893 16.856 8.008 16.856 7.89596V4.95196C19.4901 5.15909 21.9639 6.29941 23.8322 8.16776C25.7006 10.0361 26.8409 12.5099 27.048 15.144ZM15.144 4.95196V7.19996C14.5279 7.38335 13.9874 7.76081 13.6031 8.27614C13.2188 8.79147 13.0113 9.41713 13.0113 10.06C13.0113 10.7028 13.2188 11.3285 13.6031 11.8438C13.9874 12.3591 14.5279 12.7366 15.144 12.92V15.176H12.16C11.9384 15.1758 11.7254 15.2616 11.5657 15.4153C11.4061 15.569 11.3123 15.7786 11.304 16C11.304 16.3395 11.1691 16.665 10.9291 16.9051C10.689 17.1451 10.3635 17.28 10.024 17.28C9.6845 17.28 9.35892 17.1451 9.11888 16.9051C8.87883 16.665 8.74397 16.3395 8.74397 16C8.74503 15.888 8.72388 15.7768 8.68173 15.673C8.63959 15.5692 8.57729 15.4748 8.49844 15.3952C8.41959 15.3156 8.32575 15.2524 8.22235 15.2093C8.11894 15.1662 8.00801 15.144 7.89597 15.144H4.95196C5.1591 12.5099 6.29941 10.0361 8.16777 8.16776C10.0361 6.29941 12.5099 5.15909 15.144 4.95196ZM4.95196 16.856H7.19997C7.38336 17.4721 7.76081 18.0126 8.27614 18.3968C8.79148 18.7811 9.41713 18.9887 10.06 18.9887C10.7028 18.9887 11.3285 18.7811 11.8438 18.3968C12.3591 18.0126 12.7366 17.4721 12.92 16.856H15.176V19.84C15.1758 20.0616 15.2616 20.2746 15.4153 20.4342C15.569 20.5939 15.7786 20.6877 16 20.696C16.1681 20.696 16.3345 20.7291 16.4898 20.7934C16.6451 20.8578 16.7862 20.952 16.9051 21.0709C17.024 21.1898 17.1182 21.3309 17.1826 21.4862C17.2469 21.6415 17.28 21.8079 17.28 21.976C17.28 22.1441 17.2469 22.3105 17.1826 22.4658C17.1182 22.6211 17.024 22.7622 16.9051 22.8811C16.7862 23 16.6451 23.0942 16.4898 23.1586C16.3345 23.2229 16.1681 23.256 16 23.256C15.888 23.255 15.7768 23.2761 15.673 23.3182C15.5692 23.3604 15.4748 23.4227 15.3952 23.5015C15.3156 23.5804 15.2524 23.6742 15.2093 23.7776C15.1662 23.881 15.144 23.992 15.144 24.104V27.048C12.5099 26.8409 10.0361 25.7006 8.16777 23.8322C6.29941 21.9639 5.1591 19.4901 4.95196 16.856ZM16.856 27.048V24.8C17.4721 24.6166 18.0126 24.2392 18.3968 23.7238C18.7811 23.2085 18.9887 22.5828 18.9887 21.94C18.9887 21.2972 18.7811 20.6715 18.3968 20.1562C18.0126 19.6408 17.4721 19.2634 16.856 19.08V16.856H19.84C20.067 16.856 20.2848 16.7658 20.4453 16.6053C20.6058 16.4447 20.696 16.227 20.696 16C20.696 15.6605 20.8309 15.3349 21.0709 15.0949C21.311 14.8548 21.6365 14.72 21.976 14.72C22.3155 14.72 22.6411 14.8548 22.8811 15.0949C23.1212 15.3349 23.256 15.6605 23.256 16C23.255 16.112 23.2761 16.2232 23.3183 16.327C23.3604 16.4308 23.4227 16.5252 23.5015 16.6048C23.5804 16.6844 23.6742 16.7476 23.7776 16.7907C23.8811 16.8338 23.992 16.856 24.104 16.856H27.048C26.8409 19.4901 25.7006 21.9639 23.8322 23.8322C21.9639 25.7006 19.4901 26.8409 16.856 27.048Z" fill="#031339"></path><path d="M16.0005 3.19995C19.3952 3.19995 22.651 4.54852 25.0515 6.949C27.2494 9.1469 28.5654 12.0618 28.7719 15.144L27.0485 15.176C26.8414 12.5419 25.701 10.0681 23.8327 8.19976C21.9643 6.33141 19.4906 5.19109 16.8565 4.98396V7.92796C16.8565 8.04 16.8343 8.15093 16.7912 8.25434C16.748 8.35775 16.6849 8.45159 16.6053 8.53044C16.5257 8.60929 16.4312 8.67158 16.3274 8.71373C16.2236 8.75587 16.1125 8.77702 16.0005 8.77597C15.661 8.77597 15.3354 8.91082 15.0954 9.15087C14.8553 9.39092 14.7205 9.71649 14.7205 10.056C14.7205 10.3954 14.8553 10.721 15.0954 10.9611C15.3354 11.2011 15.661 11.336 16.0005 11.336C16.2275 11.336 16.4452 11.4262 16.6057 11.5867C16.7663 11.7472 16.8565 11.9649 16.8565 12.192V15.176H15.1445V12.92C14.5283 12.7366 13.9879 12.3591 13.6036 11.8438C13.2193 11.3285 13.0117 10.7028 13.0117 10.06C13.0117 9.41713 13.2193 8.79147 13.6036 8.27614C13.9879 7.76081 14.5283 7.38335 15.1445 7.19996V4.95196V3.2286C15.4288 3.20955 15.7142 3.19995 16.0005 3.19995Z" fill="#A0B9F5"></path></svg>