<svg xmlns="http://www.w3.org/2000/svg" width="30" height="30" viewBox="0 0 30 30" fill="none"><path d="M27.0001 15C27.0001 12.6267 26.2963 10.3066 24.9777 8.33318C23.6591 6.35978 21.785 4.82171 19.5923 3.91345C17.3995 3.0052 14.9867 2.76756 12.6589 3.23058C10.3312 3.69361 8.19297 4.8365 6.51473 6.51473C4.8365 8.19297 3.69361 10.3312 3.23058 12.6589C2.76756 14.9867 3.0052 17.3995 3.91345 19.5923C4.82171 21.785 6.35978 23.6591 8.33318 24.9777C10.3066 26.2963 12.6267 27.0001 15 27.0001C16.4111 26.9973 17.8105 26.7434 19.1325 26.2501C19.9201 26.7243 20.8194 26.9809 21.7386 26.9936C22.6578 27.0062 23.5639 26.7745 24.3641 26.3221C25.1644 25.8697 25.8301 25.2129 26.2933 24.4188C26.7564 23.6247 27.0003 22.7218 27.0001 21.8026C26.9993 20.863 26.7399 19.9418 26.2501 19.14C26.7428 17.8152 26.9968 16.4135 27.0001 15ZM15 4.59751C16.5995 4.59764 18.1775 4.96661 19.6112 5.67575C21.0449 6.38489 22.2957 7.41509 23.2665 8.68628C24.2373 9.95747 24.9019 11.4354 25.2087 13.0052C25.5154 14.575 25.456 16.1944 25.0351 17.7375C24.0177 16.9182 22.7274 16.5152 21.4246 16.6098C20.1218 16.7045 18.9033 17.2898 18.015 18.2475C17.811 18.2211 17.6057 18.2061 17.4 18.2025H12.6C11.443 18.2083 10.3089 18.5263 9.31758 19.123C8.32622 19.7196 7.51431 20.5728 6.96752 21.5926C5.71368 20.0716 4.91847 18.2253 4.67476 16.2693C4.43104 14.3133 4.74889 12.3284 5.59118 10.5463C6.43347 8.76418 7.76543 7.25852 9.43148 6.20515C11.0975 5.15179 13.0289 4.5942 15 4.59751ZM8.16002 22.8151C8.51963 21.9314 9.13365 21.1745 9.92415 20.6404C10.7147 20.1062 11.646 19.819 12.6 19.8151H17.0025C16.7333 20.4482 16.5955 21.1295 16.5975 21.8176C16.5989 22.9898 16.9982 24.1269 17.73 25.0426C16.0758 25.5001 14.3332 25.536 12.6615 25.1469C10.9898 24.7578 9.4422 23.9561 8.16002 22.8151ZM21.8026 25.4026C21.0905 25.4026 20.3945 25.1914 19.8025 24.7959C19.2105 24.4003 18.7491 23.838 18.4766 23.1802C18.2041 22.5224 18.1328 21.7986 18.2717 21.1002C18.4106 20.4019 18.7535 19.7604 19.257 19.257C19.7604 18.7535 20.4019 18.4106 21.1002 18.2717C21.7986 18.1328 22.5224 18.2041 23.1802 18.4766C23.838 18.7491 24.4003 19.2105 24.7959 19.8025C25.1914 20.3945 25.4026 21.0905 25.4026 21.8026C25.4006 22.7567 25.0207 23.6713 24.346 24.346C23.6713 25.0207 22.7567 25.4006 21.8026 25.4026Z" fill="#031339"></path><path d="M15 16.5973C15.9493 16.5973 16.8773 16.3158 17.6667 15.7884C18.4561 15.261 19.0713 14.5113 19.4346 13.6342C19.7979 12.7571 19.893 11.792 19.7077 10.8609C19.5225 9.92978 19.0654 9.0745 18.3941 8.40321C17.7228 7.73191 16.8675 7.27476 15.9364 7.08955C15.0053 6.90434 14.0402 6.99939 13.1631 7.3627C12.286 7.726 11.5363 8.34123 11.0089 9.13059C10.4815 9.91994 10.2 10.848 10.2 11.7973C10.2019 13.0698 10.7083 14.2895 11.608 15.1893C12.5078 16.089 13.7275 16.5954 15 16.5973ZM15 8.60232C15.6337 8.60232 16.2531 8.79034 16.78 9.14257C17.3068 9.49479 17.7172 9.9954 17.9594 10.581C18.2016 11.1666 18.2646 11.8109 18.1404 12.4324C18.0162 13.0538 17.7104 13.6244 17.2618 14.072C16.8132 14.5196 16.2419 14.824 15.6201 14.9467C14.9984 15.0694 14.3543 15.0049 13.7692 14.7614C13.1842 14.5179 12.6845 14.1062 12.3335 13.5786C11.9825 13.051 11.796 12.431 11.7975 11.7973C11.7994 10.9493 12.1377 10.1366 12.7381 9.53766C13.3385 8.93869 14.1519 8.60232 15 8.60232ZM22.245 19.9349C22.1127 19.8508 21.9592 19.8061 21.8025 19.8061C21.6457 19.8061 21.4923 19.8508 21.36 19.9349L20.16 20.7374C20.0017 20.8573 19.8941 21.0321 19.8583 21.2274C19.8224 21.4227 19.8609 21.6243 19.9663 21.7926C20.0716 21.9609 20.2361 22.0837 20.4274 22.1369C20.6187 22.1901 20.8229 22.1697 21 22.0799V23.0024C21.0192 23.2008 21.1117 23.3851 21.2594 23.5191C21.407 23.6531 21.5993 23.7274 21.7987 23.7274C21.9982 23.7274 22.1904 23.6531 22.3381 23.5191C22.4858 23.3851 22.5782 23.2008 22.5975 23.0024V22.0874C22.7765 22.1997 22.9928 22.2364 23.1989 22.1893C23.405 22.1422 23.5838 22.0151 23.6962 21.8361C23.8086 21.6571 23.8453 21.4408 23.7982 21.2347C23.7511 21.0286 23.624 20.8497 23.445 20.7374L22.245 19.9349Z" fill="#A0B9F5"></path></svg>