<svg xmlns="http://www.w3.org/2000/svg" width="32" height="32" viewBox="0 0 32 32" fill="none"><path d="M16.0004 24.5362C15.8763 24.5335 15.7539 24.5063 15.6404 24.4562L13.8404 23.6162C12.8126 23.1324 11.9435 22.3664 11.3344 21.4074C10.7253 20.4485 10.4014 19.3362 10.4004 18.2002V14.0163C10.4004 13.7892 10.4906 13.5715 10.6511 13.411C10.8116 13.2504 11.0294 13.1603 11.2564 13.1603H11.7364C12.8207 13.1599 13.8847 12.867 14.8164 12.3123L15.5684 11.8563C15.7016 11.7774 15.8536 11.7358 16.0084 11.7358C16.1632 11.7358 16.3151 11.7774 16.4484 11.8563L17.2004 12.3043C18.1299 12.8647 19.1949 13.1607 20.2803 13.1603H20.7603C20.9846 13.1645 21.1982 13.2565 21.3553 13.4166C21.5124 13.5766 21.6004 13.792 21.6003 14.0163V18.2002C21.5986 19.3371 21.2735 20.45 20.6629 21.409C20.0524 22.368 19.1817 23.1335 18.1523 23.6162L16.3524 24.4562C16.2413 24.5053 16.1217 24.5324 16.0004 24.5362ZM12.0964 14.8563V18.2002C12.0986 19.0116 12.3314 19.8057 12.7676 20.4898C13.2039 21.1739 13.8256 21.7199 14.5604 22.0642L16.0004 22.7362L17.4403 22.0642C18.1751 21.7199 18.7968 21.1739 19.2331 20.4898C19.6693 19.8057 19.9021 19.0116 19.9043 18.2002V14.8563C18.6376 14.7983 17.4055 14.4242 16.3204 13.7683L16.0004 13.6003L15.6804 13.7843C14.5937 14.4346 13.3617 14.8031 12.0964 14.8563Z" fill="#A0B9F5"></path><path d="M26.2401 28.8001H5.76021C5.42418 28.7999 5.09148 28.7334 4.78122 28.6044C4.47096 28.4753 4.18923 28.2863 3.95222 28.0481C3.71258 27.8121 3.52258 27.5306 3.39343 27.2201C3.26428 26.9096 3.19859 26.5764 3.20023 26.2401V5.76019C3.20233 5.08189 3.47272 4.43198 3.95236 3.95234C4.43199 3.47271 5.08191 3.20232 5.76021 3.20021H14.0002C14.422 3.19885 14.8376 3.30275 15.2091 3.50251C15.5807 3.70227 15.8966 3.99157 16.1282 4.3442L17.5441 6.45619H26.2401C26.5756 6.45528 26.9079 6.52052 27.2182 6.64818C27.5284 6.77585 27.8104 6.96342 28.0481 7.20019C28.2887 7.43706 28.4792 7.71988 28.6084 8.03184C28.7376 8.3438 28.8028 8.67854 28.8001 9.01618V26.2401C28.798 26.9184 28.5276 27.5683 28.0479 28.0479C27.5683 28.5276 26.9184 28.7979 26.2401 28.8001ZM5.76021 4.9042C5.53447 4.9083 5.31912 4.99981 5.15947 5.15946C4.99982 5.3191 4.90832 5.53445 4.90422 5.76019V26.2401C4.90832 26.4658 4.99982 26.6812 5.15947 26.8408C5.31912 27.0005 5.53447 27.092 5.76021 27.0961H26.2401C26.4658 27.092 26.6812 27.0005 26.8408 26.8408C27.0005 26.6812 27.092 26.4658 27.0961 26.2401V9.01618C27.0933 8.79023 27.0013 8.57455 26.8401 8.41618C26.763 8.3352 26.6697 8.27129 26.5664 8.22858C26.463 8.18586 26.3519 8.16529 26.2401 8.16818H17.0881C16.947 8.16783 16.8081 8.13259 16.6839 8.06559C16.5597 7.9986 16.454 7.90193 16.3761 7.78418L14.7122 5.2882C14.6343 5.17045 14.5286 5.07378 14.4044 5.00678C14.2802 4.93979 14.1413 4.90455 14.0002 4.9042H5.76021Z" fill="#031339"></path></svg>