<svg xmlns="http://www.w3.org/2000/svg" width="32" height="32" viewBox="0 0 32 32" fill="none"><path d="M27.4744 10.3071C28.1715 9.50928 28.5342 8.47308 28.4872 7.41425C28.4402 6.35541 27.987 5.35554 27.2219 4.62278C26.4569 3.89003 25.439 3.48087 24.3802 3.48048C23.3214 3.48009 22.3032 3.8885 21.5376 4.6207C20.8742 5.28878 20.4593 6.16403 20.3618 7.10091C20.2642 8.03779 20.49 8.97987 21.0015 9.7705L19.8254 10.9478C17.8657 9.0411 15.5601 7.52692 13.0324 6.4868C12.4331 6.26871 11.8179 6.09734 11.1922 5.97422C13.4354 4.90835 15.9709 4.62634 18.3932 5.17332C18.505 5.20267 18.6216 5.20904 18.736 5.19205C18.8504 5.17506 18.9601 5.13505 19.0586 5.07444C19.1571 5.01383 19.2423 4.93388 19.3091 4.83941C19.3759 4.74493 19.4229 4.6379 19.4472 4.52475C19.4716 4.41161 19.4728 4.2947 19.4507 4.18109C19.4287 4.06747 19.3839 3.9595 19.3191 3.86368C19.2542 3.76787 19.1706 3.68619 19.0734 3.62359C18.9761 3.56099 18.8672 3.51875 18.7532 3.49943C16.3998 2.981 13.948 3.13798 11.6797 3.95234C9.41148 4.7667 7.41891 6.20535 5.93115 8.10286C4.4434 10.0004 3.52088 12.2797 3.2697 14.6786C3.01851 17.0776 3.44885 19.4989 4.51124 21.6639C3.99043 22.2312 3.63913 22.9335 3.49729 23.6907C3.35545 24.448 3.42876 25.2299 3.70889 25.9476C3.98902 26.6652 4.46472 27.2897 5.08189 27.7501C5.69905 28.2105 6.43291 28.4883 7.2 28.5519C7.96708 28.6155 8.73659 28.4624 9.42102 28.1098C10.1054 27.7573 10.6773 27.2196 11.0716 26.5579C11.4658 25.8962 11.6666 25.137 11.6512 24.3667C11.6357 23.5964 11.4046 22.8459 10.9841 22.2005L12.1603 21.0232C14.1199 22.9299 16.4256 24.4441 18.9533 25.4842C19.5523 25.703 20.1676 25.8744 20.7935 25.9968C18.5498 27.0609 16.0149 27.3428 13.5925 26.7977C13.3751 26.7608 13.1519 26.8094 12.9694 26.9332C12.7868 27.057 12.6591 27.2465 12.6126 27.4623C12.5662 27.678 12.6048 27.9034 12.7202 28.0914C12.8357 28.2794 13.0192 28.4156 13.2325 28.4716C14.1382 28.6794 15.0636 28.7895 15.9928 28.7999C18.1705 28.8009 20.3124 28.2457 22.2159 27.187C24.1195 26.1283 25.7217 24.601 26.8712 22.7496C28.0207 20.8982 28.6793 18.7839 28.7849 16.6067C28.8905 14.4294 28.4394 12.2612 27.4744 10.3071ZM22.7458 5.83006C23.0818 5.49487 23.5095 5.26686 23.9749 5.17483C24.4403 5.08279 24.9225 5.13086 25.3606 5.31296C25.7987 5.49506 26.1731 5.80303 26.4365 6.19797C26.6999 6.59291 26.8405 7.05712 26.8405 7.53198C26.8405 8.00683 26.6999 8.47104 26.4365 8.86598C26.1731 9.26093 25.7987 9.56889 25.3606 9.75099C24.9225 9.93309 24.4403 9.98116 23.9749 9.88913C23.5095 9.79709 23.0818 9.56909 22.7458 9.2339C22.522 9.01068 22.3445 8.74543 22.2233 8.45338C22.1022 8.16133 22.0398 7.84821 22.0398 7.53198C22.0398 7.21575 22.1022 6.90263 22.2233 6.61057C22.3445 6.31852 22.522 6.05328 22.7458 5.83006ZM9.87999 7.552C10.7556 7.5799 11.6195 7.76152 12.4323 8.0886C14.7349 9.03643 16.8345 10.4176 18.6172 12.1572L12.1603 18.5644C10.4211 16.784 9.04105 14.6847 8.09574 12.3814C7.35963 10.4192 7.37564 8.85747 8.09574 8.09661C8.34178 7.89124 8.62641 7.73725 8.93285 7.64372C9.23928 7.55018 9.56132 7.519 9.87999 7.552ZM5.97544 11.1801C6.09768 11.8022 6.27164 12.413 6.49551 13.0061C7.52985 15.5364 9.04316 17.8426 10.9521 19.7978L9.77597 20.9751C9.2089 20.6091 8.56084 20.3878 7.88853 20.3305C7.21621 20.2733 6.54012 20.3819 5.91943 20.6468C5.23425 19.1614 4.88407 17.5432 4.89375 15.9072C4.90343 14.2711 5.27273 12.6572 5.97544 11.1801ZM9.2399 26.141C8.90387 26.4761 8.47616 26.7041 8.01077 26.7962C7.54538 26.8882 7.06318 26.8401 6.62506 26.658C6.18694 26.4759 5.81255 26.168 5.54917 25.773C5.28578 25.3781 5.14522 24.9139 5.14522 24.439C5.14522 23.9642 5.28578 23.5 5.54917 23.105C5.81255 22.7101 6.18694 22.4021 6.62506 22.22C7.06318 22.0379 7.54538 21.9899 8.01077 22.0819C8.47616 22.1739 8.90387 22.4019 9.2399 22.7371C9.46367 22.9603 9.64123 23.2256 9.76238 23.5176C9.88353 23.8097 9.94589 24.1228 9.94589 24.439C9.94589 24.7553 9.88353 25.0684 9.76238 25.3604C9.64123 25.6525 9.46367 25.9177 9.2399 26.141ZM19.5533 23.8824C17.2508 22.9346 15.1512 21.5534 13.3685 19.8138L19.8254 13.4066C23.986 17.8436 25.3141 22.4168 23.8259 23.8744C23.0818 24.6032 21.5216 24.6192 19.5533 23.8824ZM25.9542 20.8069C25.4982 18.228 23.7539 15.0885 21.0015 12.1572L22.1777 10.9799C22.7434 11.3492 23.3917 11.5725 24.0647 11.6298C24.7377 11.6871 25.4143 11.5766 26.0342 11.3082C26.7258 12.7944 27.0802 14.4155 27.0719 16.055C27.0636 17.6945 26.6928 19.3118 25.9862 20.7909L25.9542 20.8069Z" fill="#031339"></path><path fill-rule="evenodd" clip-rule="evenodd" d="M27.4866 10.2871C28.1843 9.48969 28.5474 8.454 28.5003 7.39569C28.4533 6.33738 27.9996 5.338 27.2338 4.60561C26.468 3.87322 25.4491 3.46426 24.3892 3.46387C23.3293 3.46348 22.3101 3.87169 21.5437 4.60352C20.8797 5.27128 20.4643 6.14609 20.3667 7.08251C20.2691 8.01893 20.4951 8.96054 21.0071 9.75078C21.2803 10.1724 21.7705 10.6897 22.1845 10.9596C22.7508 11.3287 23.3997 11.5519 24.0734 11.6091C24.747 11.6664 25.4244 11.556 26.0449 11.2878L26.1026 11.2567C26.6004 10.989 27.065 10.6636 27.4866 10.2871ZM23.9628 5.18858C23.4969 5.28057 23.0688 5.50846 22.7324 5.84349C22.5084 6.0666 22.3307 6.33171 22.2094 6.62362C22.0882 6.91553 22.0257 7.22849 22.0257 7.54457C22.0257 7.86064 22.0882 8.17361 22.2094 8.46552C22.3307 8.75742 22.5084 9.02253 22.7324 9.24564C23.0688 9.58067 23.4969 9.80857 23.9628 9.90055C24.4287 9.99254 24.9114 9.9445 25.3499 9.76249C25.7885 9.58047 26.1632 9.27266 26.4269 8.87791C26.6905 8.48317 26.8313 8.01919 26.8313 7.54457C26.8313 7.06994 26.6905 6.60597 26.4269 6.21122C26.1632 5.81647 25.7885 5.50866 25.3499 5.32665C24.9114 5.14464 24.4287 5.09659 23.9628 5.18858Z" fill="#A0B9F5"></path><path fill-rule="evenodd" clip-rule="evenodd" d="M10.6524 27.2103C11.3569 26.405 11.7236 25.3592 11.6761 24.2905C11.6285 23.2218 11.1704 22.2126 10.3971 21.473C9.6238 20.7334 8.59488 20.3205 7.52458 20.3201C6.45428 20.3197 5.42507 20.7319 4.65121 21.4709C3.98065 22.1452 3.5612 23.0286 3.46262 23.9742C3.36404 24.9198 3.59226 25.8707 4.10933 26.6687C4.38519 27.0944 4.88019 27.6168 5.29823 27.8893C5.87008 28.2621 6.52541 28.4874 7.20567 28.5453C7.88593 28.6031 8.56993 28.4916 9.19655 28.2207L9.25482 28.1894C9.75752 27.9191 10.2266 27.5904 10.6524 27.2103ZM7.09876 22.0848C6.6329 22.1768 6.20475 22.4047 5.86839 22.7397C5.64439 22.9628 5.46666 23.2279 5.34538 23.5198C5.22411 23.8117 5.16169 24.1247 5.16169 24.4408C5.16169 24.7568 5.22411 25.0698 5.34538 25.3617C5.46666 25.6536 5.64439 25.9187 5.86839 26.1418C6.20475 26.4769 6.6329 26.7048 7.09876 26.7968C7.56462 26.8887 8.04731 26.8407 8.48587 26.6587C8.92443 26.4767 9.2992 26.1689 9.56285 25.7741C9.8265 25.3794 9.96721 24.9154 9.96721 24.4408C9.96721 23.9661 9.8265 23.5022 9.56285 23.1074C9.2992 22.7127 8.92443 22.4049 8.48587 22.2228C8.04731 22.0408 7.56462 21.9928 7.09876 22.0848Z" fill="#A0B9F5"></path></svg>