<svg xmlns="http://www.w3.org/2000/svg" width="32" height="32" viewBox="0 0 32 32" fill="none"><path d="M28.2288 18.9759C28.1448 18.6567 27.9983 18.3572 27.7977 18.0949C27.5971 17.8326 27.3464 17.6127 27.0602 17.4479C26.8137 17.2951 26.6103 17.0819 26.4692 16.8285C26.3281 16.5751 26.2541 16.2899 26.2541 15.9999C26.2541 15.71 26.3281 15.4248 26.4692 15.1714C26.6103 14.918 26.8137 14.7048 27.0602 14.5519C27.6356 14.2189 28.0555 13.6717 28.228 13.0299C28.4005 12.3882 28.3116 11.7043 27.9807 11.1279L26.2198 8.07995C25.9005 7.53611 25.3882 7.1322 24.7847 6.94842C24.1812 6.76465 23.5306 6.81445 22.9621 7.08795C22.6801 7.26822 22.3524 7.36402 22.0176 7.36402C21.6829 7.36402 21.3551 7.26822 21.0731 7.08795C20.8312 6.94834 20.63 6.74788 20.4896 6.50648C20.3492 6.26509 20.2744 5.99117 20.2727 5.71195C20.2685 5.04702 20.0024 4.41052 19.532 3.94033C19.0615 3.47015 18.4247 3.20415 17.7594 3.19995H16.0065C12.61 3.19995 9.35262 4.54852 6.95091 6.94898C4.54921 9.34944 3.19995 12.6052 3.19995 15.9999C3.19995 19.3947 4.54921 22.6504 6.95091 25.0509C9.35262 27.4514 12.61 28.7999 16.0065 28.7999H17.7594C18.401 28.803 19.0194 28.56 19.487 28.1209C19.9546 27.6818 20.2358 27.0801 20.2727 26.4399C20.2654 26.1127 20.349 25.7899 20.5144 25.5074C20.6797 25.2249 20.9203 24.9939 21.2092 24.8399C21.4526 24.6995 21.7286 24.6256 22.0096 24.6256C22.2906 24.6256 22.5667 24.6995 22.81 24.8399C23.0959 25.0049 23.4115 25.112 23.7388 25.1551C24.0662 25.1981 24.3987 25.1763 24.7176 25.0909C25.0365 25.0055 25.3354 24.8581 25.5973 24.6572C25.8591 24.4562 26.0788 24.2057 26.2438 23.9199L28.0047 20.8799C28.3242 20.2985 28.4045 19.6156 28.2288 18.9759ZM15.1581 5.08795V15.1439H10.9079C11.1 9.72794 13.069 5.91995 15.1581 5.08795ZM15.1581 16.8559V26.9119C13.069 26.1119 11.1 22.2719 10.9079 16.8559H15.1581ZM16.863 12.7039C17.5967 12.8896 18.2476 13.3146 18.7125 13.9116C19.1774 14.5085 19.4298 15.2434 19.4298 15.9999C19.4298 16.7564 19.1774 17.4913 18.7125 18.0883C18.2476 18.6853 17.5967 19.1103 16.863 19.2959V12.7039ZM11.9244 5.69595C10.3636 7.84795 9.35512 11.1999 9.20304 15.1439H4.95285C5.11563 13.0754 5.85505 11.0937 7.08728 9.42381C8.31951 7.75388 9.99524 6.46244 11.9244 5.69595ZM4.95285 16.8959H9.20304C9.33111 20.8079 10.3636 24.1919 11.9244 26.3439C9.98947 25.5745 8.30985 24.2769 7.07717 22.5993C5.84449 20.9217 5.1084 18.9315 4.95285 16.8559V16.8959ZM26.4999 20.0959L24.747 23.1359C24.6937 23.2286 24.6222 23.3096 24.537 23.3741C24.4518 23.4387 24.3544 23.4856 24.2508 23.5119C24.1462 23.5403 24.0369 23.5471 23.9296 23.532C23.8223 23.5168 23.7191 23.4801 23.6265 23.4239C23.1212 23.1333 22.5485 22.9804 21.9656 22.9804C21.3827 22.9804 20.81 23.1333 20.3048 23.4239C19.7855 23.7188 19.3521 24.144 19.0475 24.6575C18.7429 25.171 18.5776 25.755 18.5679 26.3519C18.5649 26.5637 18.482 26.7666 18.3357 26.9199C18.2607 26.9965 18.171 27.0572 18.072 27.0984C17.973 27.1396 17.8667 27.1606 17.7594 27.1599H16.863V21.0399C18.0541 20.838 19.1353 20.2211 19.9149 19.2986C20.6945 18.3761 21.1222 17.2075 21.1222 15.9999C21.1222 14.7924 20.6945 13.6238 19.9149 12.7013C19.1353 11.7788 18.0541 11.1619 16.863 10.9599V4.90395H17.7594C17.8667 4.90332 17.973 4.92425 18.072 4.96547C18.171 5.0067 18.2607 5.0674 18.3357 5.14395C18.4851 5.30172 18.5682 5.51075 18.5679 5.72795C18.5696 6.31041 18.7243 6.88221 19.0165 7.3862C19.3086 7.89019 19.728 8.30871 20.2327 8.59995C20.7484 8.90284 21.3342 9.06587 21.9323 9.07289C22.5303 9.0799 23.1199 8.93066 23.6425 8.63995C23.7336 8.58728 23.8343 8.5531 23.9387 8.53937C24.043 8.52565 24.1491 8.53264 24.2508 8.55995C24.3544 8.5863 24.4518 8.63315 24.537 8.69773C24.6222 8.76231 24.6937 8.84331 24.747 8.93595L26.4999 11.9999C26.5529 12.0912 26.5872 12.1921 26.6009 12.2967C26.6147 12.4014 26.6076 12.5077 26.5801 12.6095C26.5526 12.7114 26.5051 12.8068 26.4406 12.8903C26.376 12.9738 26.2955 13.0437 26.2038 13.0959C25.6982 13.3996 25.2799 13.8288 24.9895 14.3419C24.6991 14.855 24.5464 15.4344 24.5464 16.0239C24.5464 16.6134 24.6991 17.1929 24.9895 17.706C25.2799 18.2191 25.6982 18.6483 26.2038 18.9519C26.2957 19.0044 26.3762 19.0745 26.4408 19.1583C26.5053 19.2421 26.5527 19.3378 26.58 19.4399C26.6224 19.6301 26.594 19.8292 26.4999 19.9999V20.0959Z" fill="#031339"></path><path d="M18.7128 13.9116C18.2479 13.3146 17.597 12.8896 16.8633 12.704V10.96C18.0544 11.1619 19.1356 11.7788 19.9152 12.7013C20.6948 13.6238 21.1225 14.7924 21.1225 16C21.1225 17.2075 20.6948 18.3761 19.9152 19.2986C19.1356 20.2211 18.0544 20.838 16.8633 21.0399V19.296C17.597 19.1103 18.2479 18.6853 18.7128 18.0883C19.1777 17.4914 19.4301 16.7565 19.4301 16C19.4301 15.2434 19.1777 14.5086 18.7128 13.9116Z" fill="#A0B9F5"></path></svg>