<svg xmlns="http://www.w3.org/2000/svg" width="30" height="30" viewBox="0 0 30 30" fill="none"><path d="M28.1834 14.5084L25.6084 10.6084L24.6667 6.02505C24.639 5.85157 24.5573 5.69128 24.433 5.56706C24.3088 5.44284 24.1485 5.36105 23.975 5.33338L19.3917 4.39172L15.4917 1.81672C15.3463 1.71926 15.1751 1.66724 15 1.66724C14.825 1.66724 14.6538 1.71926 14.5084 1.81672L10.6084 4.39172L6.02505 5.33338C5.85157 5.36105 5.69128 5.44284 5.56706 5.56706C5.44284 5.69128 5.36105 5.85157 5.33338 6.02505L4.39172 10.6084L1.81672 14.5084C1.71926 14.6538 1.66724 14.825 1.66724 15C1.66724 15.1751 1.71926 15.3463 1.81672 15.4917L4.39172 19.3917L5.33338 23.975C5.36105 24.1485 5.44284 24.3088 5.56706 24.433C5.69128 24.5573 5.85157 24.639 6.02505 24.6667L10.6084 25.6084L14.5084 28.1834C14.6538 28.2808 14.825 28.3329 15 28.3329C15.1751 28.3329 15.3463 28.2808 15.4917 28.1834L19.3917 25.6084L23.975 24.6667C24.1485 24.639 24.3088 24.5573 24.433 24.433C24.5573 24.3088 24.639 24.1485 24.6667 23.975L25.6084 19.3917L28.1834 15.4917C28.2808 15.3463 28.3329 15.1751 28.3329 15C28.3329 14.825 28.2808 14.6538 28.1834 14.5084ZM24.0167 18.5584C23.9518 18.651 23.9064 18.756 23.8834 18.8667L23.05 23.0334L18.8834 23.8667C18.7726 23.8898 18.6677 23.9351 18.5751 24L15 26.3834L11.4417 24.0334C11.3491 23.9685 11.2441 23.9231 11.1334 23.9L6.96672 23.0667L6.13338 18.9C6.11033 18.7893 6.06496 18.6844 6.00005 18.5917L3.61672 15L5.96672 11.4417C6.03163 11.3491 6.077 11.2441 6.10005 11.1334L6.93338 6.96672L11.1 6.13338C11.2108 6.11033 11.3157 6.06496 11.4084 6.00005L15 3.61672L18.5584 5.96672C18.651 6.03163 18.756 6.077 18.8667 6.10005L23.0334 6.93338L23.8667 11.1C23.8898 11.2108 23.9351 11.3157 24 11.4084L26.3834 15L24.0167 18.5584Z" fill="#031339"></path><path d="M15 7C13.4178 7 11.871 7.46919 10.5554 8.34824C9.23985 9.22729 8.21447 10.4767 7.60897 11.9385C7.00347 13.4003 6.84504 15.0089 7.15372 16.5607C7.4624 18.1126 8.22433 19.538 9.34315 20.6569C10.462 21.7757 11.8874 22.5376 13.4393 22.8463C14.9911 23.155 16.5997 22.9965 18.0615 22.391C19.5233 21.7855 20.7727 20.7602 21.6518 19.4446C22.5308 18.129 23 16.5823 23 15C22.9956 12.8796 22.1513 10.8473 20.652 9.34801C19.1527 7.84867 17.1204 7.0044 15 7ZM15 21.225C13.7688 21.225 12.5653 20.8599 11.5416 20.1759C10.5179 19.4919 9.72001 18.5197 9.24885 17.3822C8.7777 16.2447 8.65442 14.9931 8.89462 13.7856C9.13481 12.578 9.72768 11.4688 10.5983 10.5983C11.4688 9.72768 12.578 9.13481 13.7856 8.89461C14.9931 8.65442 16.2447 8.77769 17.3822 9.24885C18.5197 9.72001 19.4919 10.5179 20.1759 11.5416C20.8599 12.5653 21.225 13.7688 21.225 15C21.2228 16.6503 20.5662 18.2324 19.3993 19.3993C18.2324 20.5662 16.6503 21.2228 15 21.225Z" fill="#A0B9F5"></path><path d="M16.5916 13.2084L14.4416 15.3584L13.4083 14.3167C13.2381 14.1674 13.0174 14.0884 12.7911 14.0957C12.5648 14.1031 12.3497 14.1963 12.1896 14.3564C12.0295 14.5165 11.9363 14.7316 11.9289 14.9579C11.9216 15.1842 12.0006 15.4048 12.1499 15.575L13.8166 17.2417C13.9837 17.4081 14.2099 17.5015 14.4458 17.5015C14.6816 17.5015 14.9078 17.4081 15.0749 17.2417L17.8499 14.4584C17.9331 14.3769 17.9991 14.2797 18.0442 14.1723C18.0893 14.065 18.1126 13.9498 18.1126 13.8334C18.1126 13.717 18.0893 13.6017 18.0442 13.4944C17.9991 13.3871 17.9331 13.2898 17.8499 13.2084C17.7677 13.125 17.6698 13.0588 17.5618 13.0136C17.4538 12.9683 17.3379 12.9451 17.2208 12.9451C17.1037 12.9451 16.9878 12.9683 16.8797 13.0136C16.7717 13.0588 16.6738 13.125 16.5916 13.2084Z" fill="#A0B9F5"></path></svg>