<svg xmlns="http://www.w3.org/2000/svg" width="30" height="30" viewBox="0 0 30 30" fill="none"><path d="M24.7045 5.88035H21.6742C20.65 5.8787 19.6452 5.60409 18.7652 5.08536L15.4242 3.1129C15.2981 3.03899 15.1542 3 15.0076 3C14.861 3 14.7171 3.03899 14.5909 3.1129L11.2803 5.08536C10.4003 5.60409 9.39541 5.8787 8.37121 5.88035H5.34091C5.23194 5.87631 5.12326 5.89409 5.02139 5.9326C4.91952 5.97112 4.82654 6.02959 4.74803 6.10452C4.66952 6.17944 4.60709 6.26928 4.56447 6.36865C4.52185 6.46802 4.49992 6.57488 4.5 6.68283V15.6077C4.50461 17.585 5.07676 19.5203 6.14978 21.1881C7.2228 22.8559 8.7525 24.1874 10.5606 25.0275L14.6591 26.925C14.7658 26.9745 14.8822 27.0001 15 27.0001C15.1178 27.0001 15.2342 26.9745 15.3409 26.925L19.4394 25.0275C21.2475 24.1874 22.7772 22.8559 23.8502 21.1881C24.9232 19.5203 25.4954 17.585 25.5 15.6077V6.68283C25.5 6.47258 25.4167 6.2707 25.268 6.12063C25.1192 5.97056 24.9169 5.88428 24.7045 5.88035ZM23.8939 15.6302C23.8896 17.2968 23.4084 18.9281 22.5061 20.3351C21.6037 21.7421 20.3172 22.8672 18.7955 23.58L15.0076 25.32L11.2197 23.58C9.69448 22.8655 8.40558 21.7369 7.50299 20.3256C6.60039 18.9142 6.12121 17.2781 6.12121 15.6077V7.50032H8.39394C9.71136 7.49965 11.0042 7.14728 12.1364 6.48034L15.0076 4.73287L17.9015 6.45784C19.0314 7.13267 20.3244 7.49285 21.6439 7.50032H23.9167L23.8939 15.6302Z" fill="#031339"></path><path d="M15.0075 8.60278C13.7294 8.60278 12.4801 8.97798 11.4174 9.68094C10.3547 10.3839 9.52642 11.383 9.03731 12.552C8.54821 13.721 8.42024 15.0073 8.66958 16.2482C8.91892 17.4892 9.53438 18.6291 10.4381 19.5238C11.3419 20.4185 12.4933 21.0278 13.7468 21.2746C15.0004 21.5215 16.2997 21.3948 17.4805 20.9106C18.6613 20.4264 19.6705 19.6064 20.3806 18.5544C21.0907 17.5023 21.4697 16.2654 21.4697 15.0002C21.4697 13.3035 20.7888 11.6763 19.5769 10.4765C18.3651 9.27679 16.7214 8.60278 15.0075 8.60278ZM15.0075 19.8001C14.0486 19.8001 13.1112 19.5186 12.3139 18.9911C11.5165 18.4637 10.8951 17.7141 10.5281 16.837C10.1611 15.9599 10.0651 14.9948 10.2522 14.0637C10.4393 13.1327 10.9011 12.2774 11.5791 11.6061C12.2572 10.9348 13.1211 10.4777 14.0616 10.2925C15.0022 10.1073 15.977 10.2023 16.863 10.5656C17.7489 10.9289 18.5061 11.5441 19.0389 12.3335C19.5717 13.1228 19.856 14.0508 19.856 15.0002C19.854 16.2726 19.3425 17.4923 18.4337 18.392C17.5249 19.2917 16.2928 19.7981 15.0075 19.8001Z" fill="#A0B9F5"></path><path d="M15.0075 12.8779C14.7067 12.8788 14.4141 12.9743 14.1718 13.1508C13.9296 13.3272 13.7503 13.5754 13.6601 13.8594C13.5698 14.1434 13.5731 14.4485 13.6696 14.7304C13.7662 15.0124 13.9508 15.2567 14.1969 15.4279V16.3129C14.1969 16.5257 14.2823 16.7298 14.4343 16.8803C14.5863 17.0308 14.7925 17.1154 15.0075 17.1154C15.2225 17.1154 15.4286 17.0308 15.5807 16.8803C15.7327 16.7298 15.8181 16.5257 15.8181 16.3129V15.4279C16.0642 15.2567 16.2488 15.0124 16.3453 14.7304C16.4418 14.4485 16.4452 14.1434 16.3549 13.8594C16.2646 13.5754 16.0854 13.3272 15.8431 13.1508C15.6009 12.9743 15.3082 12.8788 15.0075 12.8779Z" fill="#A0B9F5"></path></svg>