<svg xmlns="http://www.w3.org/2000/svg" width="32" height="32" viewBox="0 0 32 32" fill="none"><path d="M11.7283 15.9802C11.7283 16.822 11.9783 17.6449 12.4468 18.3448C12.9152 19.0447 13.5811 19.5902 14.3601 19.9124C15.1392 20.2345 15.9964 20.3188 16.8234 20.1546C17.6504 19.9904 18.4101 19.585 19.0063 18.9898C19.6026 18.3945 20.0086 17.6362 20.1731 16.8106C20.3376 15.985 20.2532 15.1292 19.9305 14.3515C19.6078 13.5738 19.0614 12.9091 18.3603 12.4414C17.6592 11.9737 16.8349 11.7241 15.9917 11.7241C14.8609 11.7241 13.7765 12.1725 12.977 12.9707C12.1774 13.7689 11.7283 14.8514 11.7283 15.9802ZM18.5513 15.9802C18.5513 16.4856 18.4012 16.9797 18.1199 17.3999C17.8387 17.8201 17.4389 18.1476 16.9712 18.341C16.5035 18.5344 15.9888 18.585 15.4923 18.4864C14.9958 18.3878 14.5397 18.1444 14.1817 17.7871C13.8238 17.4297 13.58 16.9744 13.4812 16.4787C13.3824 15.9831 13.4331 15.4693 13.6269 15.0024C13.8206 14.5355 14.1487 14.1364 14.5696 13.8556C14.9905 13.5748 15.4854 13.425 15.9917 13.425C16.6699 13.4271 17.3197 13.697 17.7993 14.1757C18.2788 14.6545 18.5492 15.3032 18.5513 15.9802Z" fill="#A0B9F5"></path><path d="M28.5421 23.8936L25.1265 20.4919C25.0478 20.4128 24.9541 20.3499 24.851 20.3068C24.7479 20.2638 24.6372 20.2414 24.5255 20.241C24.4137 20.2407 24.3029 20.2623 24.1995 20.3047C24.0961 20.347 24.002 20.4093 23.9227 20.4879C23.8434 20.5666 23.7804 20.6601 23.7373 20.763C23.6942 20.866 23.6718 20.9764 23.6714 21.088C23.671 21.1996 23.6927 21.3102 23.7351 21.4134C23.7775 21.5167 23.8399 21.6105 23.9187 21.6897L25.8784 23.6461H11.6405C11.4717 22.8284 11.0665 22.078 10.4752 21.4876C9.88379 20.8972 9.13208 20.4928 8.31296 20.3243V11.6363C9.13208 11.4678 9.88379 11.0634 10.4752 10.473C11.0665 9.88263 11.4717 9.13221 11.6405 8.31449H20.3432C20.5544 9.35018 21.1433 10.2707 21.9958 10.8975C22.8482 11.5242 23.9035 11.8126 24.9569 11.7067C26.0103 11.6008 26.9867 11.1081 27.6969 10.3242C28.407 9.54024 28.8002 8.52099 28.8002 7.46406C28.8002 6.40714 28.407 5.38789 27.6969 4.60397C26.9867 3.82006 26.0103 3.32736 24.9569 3.22143C23.9035 3.1155 22.8482 3.40389 21.9958 4.03067C21.1433 4.65745 20.5544 5.57795 20.3432 6.61364H11.6405C11.4862 5.86046 11.1304 5.16307 10.6109 4.59554C10.0914 4.02801 9.42766 3.61155 8.69013 3.39038C7.9526 3.1692 7.16883 3.15159 6.42207 3.33939C5.67531 3.5272 4.99345 3.91342 4.44891 4.45703C3.90438 5.00063 3.5175 5.68133 3.32937 6.42682C3.14124 7.1723 3.15889 7.95474 3.38044 8.69101C3.60199 9.42729 4.01917 10.0899 4.58766 10.6085C5.15616 11.1271 5.85474 11.4823 6.60921 11.6363V20.3243C5.85474 20.4783 5.15616 20.8335 4.58766 21.3521C4.01917 21.8707 3.60199 22.5333 3.38044 23.2696C3.15889 24.0059 3.14124 24.7883 3.32937 25.5338C3.5175 26.2793 3.90438 26.96 4.44891 27.5036C4.99345 28.0472 5.67531 28.4334 6.42207 28.6212C7.16883 28.809 7.9526 28.7914 8.69013 28.5702C9.42766 28.349 10.0914 27.9326 10.6109 27.3651C11.1304 26.7975 11.4862 26.1001 11.6405 25.347H25.8784L23.9187 27.3033C23.8307 27.3804 23.7595 27.4747 23.7095 27.5804C23.6594 27.6861 23.6316 27.8009 23.6278 27.9177C23.624 28.0345 23.6442 28.1509 23.6873 28.2596C23.7303 28.3683 23.7953 28.467 23.878 28.5497C23.9608 28.6324 24.0597 28.6972 24.1686 28.7401C24.2775 28.7831 24.3941 28.8033 24.5111 28.7995C24.6281 28.7957 24.7431 28.768 24.849 28.718C24.9549 28.6681 25.0493 28.597 25.1265 28.5091L28.5421 25.0994C28.6999 24.9383 28.7882 24.7219 28.7882 24.4965C28.7882 24.2712 28.6999 24.0548 28.5421 23.8936ZM24.5426 4.9048C25.0489 4.9048 25.5438 5.05467 25.9647 5.33544C26.3856 5.61622 26.7137 6.0153 26.9074 6.48221C27.1012 6.94913 27.1518 7.46291 27.0531 7.95858C26.9543 8.45425 26.7105 8.90956 26.3526 9.26692C25.9946 9.62428 25.5385 9.86765 25.042 9.96624C24.5455 10.0648 24.0308 10.0142 23.5631 9.82083C23.0954 9.62743 22.6956 9.29991 22.4144 8.8797C22.1331 8.45949 21.983 7.96546 21.983 7.46007C21.9851 6.78577 22.2532 6.13944 22.7293 5.66114C23.2055 5.18284 23.8512 4.9111 24.5266 4.9048H24.5426ZM4.89745 7.46007C4.89745 6.95469 5.04757 6.46065 5.32883 6.04044C5.61009 5.62023 6.00985 5.29271 6.47756 5.09931C6.94527 4.90591 7.45993 4.85531 7.95645 4.9539C8.45297 5.0525 8.90905 5.29586 9.26702 5.65322C9.62499 6.01059 9.86877 6.46589 9.96754 6.96156C10.0663 7.45724 10.0156 7.97102 9.82188 8.43793C9.62815 8.90485 9.30007 9.30392 8.87914 9.5847C8.45821 9.86548 7.96333 10.0153 7.45709 10.0153C6.77888 10.0132 6.12905 9.74334 5.64948 9.26459C5.16992 8.78584 4.89956 8.13712 4.89745 7.46007ZM7.45709 27.0558C6.95084 27.0558 6.45596 26.9059 6.03503 26.6251C5.6141 26.3444 5.28603 25.9453 5.09229 25.4784C4.89856 25.0115 4.84787 24.4977 4.94664 24.002C5.0454 23.5063 5.28918 23.051 5.64715 22.6937C6.00512 22.3363 6.46121 22.0929 6.95773 21.9943C7.45425 21.8958 7.9689 21.9464 8.43662 22.1398C8.90433 22.3332 9.30409 22.6607 9.58534 23.0809C9.8666 23.5011 10.0167 23.9951 10.0167 24.5005C10.0146 25.1776 9.74426 25.8263 9.26469 26.305C8.78512 26.7838 8.13529 27.0537 7.45709 27.0558Z" fill="#031339"></path></svg>