<svg xmlns="http://www.w3.org/2000/svg" width="30" height="35" viewBox="0 0 48 48"><path d="M39.5946 18.6301C39.6058 18.428 39.6058 18.2255 39.5946 18.0234C39.5917 16.1172 38.8322 14.29 37.4827 12.9421C36.1331 11.5942 34.3036 10.8356 32.3951 10.8327C32.259 9.50736 31.6355 8.27957 30.6454 7.38686C29.6552 6.49416 28.3687 6 27.0348 6C25.7009 6 24.4144 6.49416 23.4242 7.38686C22.4341 8.27957 21.8106 9.50736 21.6745 10.8327V15.619H19.1772C18.9969 15.6244 18.8179 15.5863 18.6554 15.5081C18.4929 15.4299 18.3516 15.3138 18.2435 15.1696L17.051 13.6865C17.6819 12.8682 18.0257 11.8654 18.0297 10.8327C18.032 9.88333 17.7521 8.95467 17.2257 8.16424C16.6992 7.37381 15.9498 6.75714 15.0723 6.3923C14.1948 6.02746 13.2286 5.93085 12.2961 6.1147C11.3636 6.29854 10.5066 6.75457 9.83373 7.42508C9.16083 8.09558 8.70223 8.9504 8.51597 9.88134C8.32971 10.8123 8.42418 11.7775 8.78741 12.6548C9.15064 13.5321 9.7663 14.282 10.5565 14.8097C11.3466 15.3373 12.2758 15.619 13.2263 15.619C13.9018 15.6177 14.5692 15.4722 15.1837 15.1921L16.3086 16.6639C16.6433 17.0889 17.0705 17.4321 17.5577 17.6677C18.045 17.9032 18.5796 18.0249 19.1209 18.0234H21.5958V22.8097H15.4536C15.1607 21.6795 14.4653 20.6948 13.4976 20.04C12.5298 19.3852 11.3563 19.1053 10.1968 19.2528C9.03724 19.4002 7.97134 19.9649 7.19877 20.841C6.42621 21.7171 6 22.8445 6 24.0119C6 25.1794 6.42621 26.3068 7.19877 27.1829C7.97134 28.059 9.03724 28.6236 10.1968 28.7711C11.3563 28.9185 12.5298 28.6387 13.4976 27.9839C14.4653 27.3291 15.1607 26.3443 15.4536 25.2141H21.6408V30.0005H19.1772C18.637 29.9993 18.1036 30.12 17.6166 30.3534C17.1297 30.5869 16.7018 30.9271 16.3648 31.3487L15.2399 32.8318C14.6254 32.5517 13.958 32.4061 13.2825 32.4049C12.332 32.4049 11.4029 32.6865 10.6127 33.2142C9.82255 33.7419 9.20688 34.4918 8.84365 35.3691C8.48042 36.2464 8.38596 37.2116 8.57222 38.1425C8.75847 39.0735 9.21707 39.9283 9.88997 40.5988C10.5629 41.2693 11.4198 41.7253 12.3523 41.9092C13.2849 42.093 14.251 41.9964 15.1285 41.6316C16.0061 41.2667 16.7555 40.6501 17.2819 39.8596C17.8084 39.0692 18.0882 38.1405 18.086 37.1912C18.082 36.1585 17.7381 35.1557 17.1073 34.3374L18.2997 32.8543C18.4079 32.7101 18.5492 32.594 18.7117 32.5158C18.8742 32.4376 19.0531 32.3995 19.2334 32.4049H21.6858V37.1912C21.8527 38.4978 22.4841 39.7011 23.4649 40.5817C24.4457 41.4623 25.7106 41.9616 27.0292 41.9888C28.3731 41.9865 29.6681 41.4849 30.6621 40.5814C31.656 39.678 32.2778 38.4375 32.4063 37.1013C34.0462 36.8256 35.5405 35.9931 36.637 34.7444C37.7334 33.4958 38.3649 31.9074 38.4247 30.2477C39.411 29.6737 40.2466 28.8738 40.8624 27.9139C41.4782 26.9539 41.8567 25.8615 41.9666 24.7267C42.0765 23.5919 41.9146 22.4473 41.4944 21.3872C41.0741 20.3272 40.4076 19.3822 39.5496 18.6301H39.5946ZM10.8302 10.8327C10.8302 10.3594 10.9707 9.89666 11.234 9.50311C11.4973 9.10955 11.8715 8.80281 12.3093 8.62168C12.7472 8.44055 13.2289 8.39316 13.6937 8.4855C14.1585 8.57784 14.5855 8.80576 14.9206 9.14045C15.2557 9.47514 15.4839 9.90157 15.5763 10.3658C15.6688 10.83 15.6213 11.3112 15.44 11.7485C15.2586 12.1858 14.9515 12.5596 14.5575 12.8225C14.1634 13.0855 13.7002 13.2258 13.2263 13.2258C12.5908 13.2258 11.9813 12.9737 11.532 12.5249C11.0826 12.0761 10.8302 11.4674 10.8302 10.8327ZM10.8302 26.4051C10.3563 26.4051 9.89302 26.2647 9.49898 26.0018C9.10494 25.7388 8.79783 25.3651 8.61647 24.9278C8.43512 24.4905 8.38767 24.0093 8.48012 23.5451C8.57258 23.0808 8.80078 22.6544 9.13588 22.3197C9.47098 21.985 9.89793 21.7571 10.3627 21.6648C10.8275 21.5724 11.3093 21.6198 11.7471 21.8009C12.185 21.9821 12.5592 22.2888 12.8225 22.6824C13.0858 23.0759 13.2263 23.5386 13.2263 24.0119C13.2263 24.6466 12.9738 25.2554 12.5245 25.7042C12.0751 26.153 11.4657 26.4051 10.8302 26.4051ZM13.2263 39.5956C12.7497 39.5978 12.2831 39.4587 11.8858 39.1959C11.4884 38.933 11.1781 38.5583 10.9942 38.1191C10.8102 37.68 10.761 37.1962 10.8526 36.729C10.9442 36.2619 11.1726 35.8324 11.5088 35.495C11.845 35.1577 12.2739 34.9275 12.7412 34.8339C13.2085 34.7402 13.6931 34.7871 14.1337 34.9688C14.5742 35.1504 14.9509 35.4586 15.2159 35.8542C15.4809 36.2499 15.6224 36.7152 15.6224 37.1912C15.6239 37.5064 15.563 37.8188 15.4432 38.1105C15.3235 38.4021 15.1472 38.6673 14.9246 38.8907C14.7019 39.1141 14.4373 39.2914 14.1458 39.4124C13.8544 39.5333 13.5419 39.5956 13.2263 39.5956ZM36.7261 28.4163C36.4923 28.5156 36.2964 28.6868 36.1669 28.9051C36.0374 29.1233 35.9811 29.3772 36.0061 29.6297V30.0117C36.0046 30.6451 35.8779 31.272 35.6332 31.8563C35.3884 32.4407 35.0305 32.9709 34.58 33.4167C34.1295 33.8625 33.5952 34.215 33.0079 34.454C32.4206 34.693 31.7918 34.8137 31.1577 34.8093C30.9852 34.8113 30.815 34.8493 30.6581 34.9209C30.5011 34.9925 30.3609 35.0961 30.2465 35.225C30.1089 35.4244 30.0156 35.6508 29.9729 35.8892C29.9302 36.1276 29.9391 36.3723 29.999 36.607C29.999 37.4006 29.6841 38.162 29.1232 38.7242C28.5624 39.2865 27.8013 39.6039 27.0067 39.6068C26.2623 39.5919 25.5488 39.3064 25.0001 38.8038C24.4513 38.3012 24.1048 37.616 24.0256 36.8766V10.9226C24.1384 10.1714 24.5333 9.49135 25.1301 9.02055C25.7269 8.54976 26.4807 8.32357 27.2385 8.38795C27.9962 8.45233 28.701 8.80245 29.2095 9.36715C29.7181 9.93186 29.9923 10.6688 29.9765 11.4282C29.9765 11.9899 29.7965 12.5517 30.2802 13.0236C30.8652 13.6191 31.6639 13.1921 32.3838 13.2258C33.6558 13.2288 34.8747 13.7356 35.7731 14.635C36.6715 15.5344 37.176 16.753 37.176 18.0234C37.1788 18.3211 37.1524 18.6184 37.0973 18.911C37.0547 19.1355 37.0765 19.3674 37.1601 19.5801C37.2437 19.7928 37.3857 19.9776 37.5698 20.1132C38.2641 20.6056 38.8146 21.2738 39.1645 22.0492C39.5144 22.8246 39.6511 23.6791 39.5606 24.5247C39.4701 25.3704 39.1556 26.1767 38.6495 26.8607C38.1434 27.5447 37.4639 28.0816 36.6811 28.4163H36.7261Z" fill="#031339"></path></svg>