<svg xmlns="http://www.w3.org/2000/svg" width="50" height="50" viewBox="0 0 50 50" fill="none"><g clip-path="url(#clip0_64_83)"><path d="M0 25V0H25H50V25V50H25H0V25ZM21.8884 45.8788C24.8952 45.3591 26.7061 43.4365 27.1085 40.3365C27.149 40.0246 27.1782 36.3293 27.1795 31.3484L27.1817 22.8898H24.8569H22.5322L22.531 30.8834C22.5302 35.6678 22.5012 39.1479 22.4586 39.5518C22.3178 40.8895 21.8176 41.5406 20.7583 41.7651C19.2579 42.0832 18.1406 41.4811 17.2232 39.8605C17.1063 39.654 16.9769 39.485 16.9356 39.485C16.8679 39.485 13.3521 41.5795 13.2095 41.7047C13.0608 41.8354 13.9512 43.1974 14.6453 43.9011C16.35 45.6292 19.0565 46.3682 21.8884 45.8788ZM39.8784 45.9157C41.7904 45.6747 43.3487 44.936 44.4911 43.7292C44.9591 43.2347 45.135 42.9812 45.4179 42.3928C45.8826 41.4266 45.9977 40.9378 46.0437 39.7353C46.1269 37.5588 45.5519 36.0195 44.1581 34.688C43.159 33.7336 41.8993 32.9964 39.5207 31.974C37.0813 30.9255 36.3309 30.446 35.9734 29.7074C35.7251 29.1945 35.7379 28.4191 36.0037 27.8779C36.3974 27.0762 37.1571 26.706 38.2774 26.7699C39.345 26.8307 40.0894 27.2808 40.7393 28.2585L41.0635 28.7462L42.7015 27.6957C43.6025 27.1179 44.4221 26.5808 44.5229 26.5021L44.7062 26.3591L44.3023 25.7605C43.2899 24.2597 41.9499 23.3069 40.2571 22.8841C39.4021 22.6705 37.4835 22.6152 36.5522 22.7773C35.018 23.0444 33.9321 23.5824 32.9327 24.5708C32.0281 25.4655 31.539 26.3609 31.2856 27.5864C31.1071 28.4495 31.1789 30.0881 31.4324 30.9335C32.0803 33.0951 33.5362 34.488 36.5281 35.8088C37.1118 36.0665 38.0234 36.4693 38.5538 36.7039C40.6911 37.6491 41.368 38.3267 41.368 39.5207C41.368 40.6254 40.6644 41.3942 39.3368 41.7402C38.6257 41.9255 37.2695 41.86 36.5248 41.6045C35.51 41.2562 34.5378 40.4725 33.8697 39.4641C33.6771 39.1734 33.5624 39.0624 33.4853 39.092C33.2636 39.1771 29.7568 41.2316 29.7568 41.2764C29.7568 41.4404 30.8366 42.9074 31.3008 43.374C33.3592 45.4432 36.4233 46.3511 39.8784 45.9157Z" fill="#F7DF1E"></path><path d="M19.3491 45.9838C17.5132 45.8488 15.8326 45.1047 14.6453 43.9011C13.9512 43.1974 13.0608 41.8354 13.2095 41.7047C13.3521 41.5795 16.8679 39.485 16.9356 39.485C16.9769 39.485 17.1063 39.654 17.2232 39.8605C18.1406 41.4811 19.2579 42.0832 20.7583 41.7651C21.8176 41.5406 22.3178 40.8895 22.4586 39.5518C22.5012 39.1479 22.5302 35.6678 22.5309 30.8834L22.5322 22.8898H24.8569H27.1817L27.1795 31.3484C27.1782 36.3293 27.149 40.0246 27.1085 40.3365C26.5996 44.2571 23.7796 46.3095 19.3491 45.9838ZM37.4057 45.9889C34.261 45.7702 31.8087 44.4263 30.2488 42.0669C29.9782 41.6576 29.7568 41.3019 29.7568 41.2764C29.7568 41.2316 33.2636 39.1771 33.4853 39.092C33.5624 39.0624 33.6771 39.1734 33.8697 39.4641C34.5378 40.4725 35.51 41.2562 36.5248 41.6045C37.2695 41.86 38.6257 41.9255 39.3368 41.7402C40.6644 41.3942 41.368 40.6254 41.368 39.5207C41.368 38.3267 40.6911 37.6491 38.5538 36.7039C38.0234 36.4693 37.1118 36.0665 36.5281 35.8088C33.5362 34.488 32.0803 33.0951 31.4324 30.9335C31.1789 30.0881 31.1071 28.4495 31.2856 27.5864C31.539 26.3609 32.0281 25.4655 32.9327 24.5708C33.9321 23.5824 35.018 23.0444 36.5522 22.7773C37.4835 22.6152 39.4021 22.6705 40.2571 22.8841C41.9499 23.3069 43.2899 24.2597 44.3023 25.7605L44.7062 26.3591L44.5229 26.5021C44.4221 26.5808 43.6025 27.1179 42.7016 27.6957L41.0635 28.7462L40.7393 28.2585C40.0894 27.2808 39.345 26.8307 38.2774 26.7699C37.1571 26.706 36.3974 27.0762 36.0037 27.8779C35.8325 28.2265 35.8021 28.3746 35.8072 28.8336C35.8217 30.1306 36.4312 30.646 39.5207 31.974C41.8993 32.9963 43.159 33.7336 44.1581 34.688C45.5519 36.0195 46.1269 37.5588 46.0437 39.7353C45.9977 40.9378 45.8826 41.4266 45.4179 42.3928C44.219 44.8858 41.1769 46.2511 37.4057 45.9889Z" fill="black"></path></g><defs><clipPath id="clip0_64_83"><rect width="50" height="50" fill="white"></rect></clipPath></defs></svg>