<svg xmlns="http://www.w3.org/2000/svg" width="48" height="49" viewBox="0 0 48 49" fill="none"><g clip-path="url(#clip0_118_105)"><path d="M48 48.1804C48 48.1812 47.9991 48.1821 47.9982 48.1821H0.00177778C0.000888889 48.1821 0 48.1812 0 48.1804V0.183907C0 0.183018 0.000888889 0.182129 0.00177778 0.182129H47.9987C47.9996 0.182129 48.0004 0.183018 48.0004 0.183907V48.1804H48Z" fill="white"></path><path d="M47.1998 47.3804C47.1998 47.3813 47.1989 47.3822 47.198 47.3822H0.801583C0.800694 47.3822 0.799805 47.3813 0.799805 47.3804V0.983956C0.799805 0.983067 0.800694 0.982178 0.801583 0.982178H47.1985C47.1994 0.982178 47.2002 0.983067 47.2002 0.983956V47.3804H47.1998Z" fill="#D00000"></path><path d="M13.4663 36.7897C13.4663 36.8248 13.4867 36.8737 13.5112 36.8981L14.3054 37.6924C14.3303 37.7173 14.3792 37.7373 14.4138 37.7373H17.1316C17.1667 37.7373 17.2156 37.7168 17.24 37.6924L18.0343 36.8981C18.0592 36.8733 18.0792 36.8244 18.0792 36.7897V28.1661C18.0792 28.131 18.1 28.0826 18.1254 28.0586L21.5783 24.7608C21.6036 24.7368 21.6405 24.7404 21.66 24.7697L30.384 37.6853C30.4036 37.7141 30.4485 37.7381 30.4832 37.7381H34.3334C34.3685 37.7381 34.4103 37.7128 34.4263 37.6817L35.1249 36.3279C35.1409 36.2968 35.1378 36.2479 35.1178 36.219L24.9134 21.4279C24.8934 21.399 24.8974 21.3555 24.9223 21.3306L34.308 11.9888C34.3329 11.9639 34.3529 11.9155 34.3529 11.8804V11.7079C34.3529 11.6728 34.3414 11.6181 34.3276 11.5857L33.7863 10.3408C33.7725 10.3088 33.732 10.2826 33.6974 10.2826H29.8916C29.8565 10.2826 29.8076 10.303 29.7832 10.3275L18.1249 22.0297C18.1 22.0546 18.08 22.0461 18.08 22.011V11.2755C18.08 11.2404 18.0605 11.191 18.0365 11.1653L17.2574 10.3297C17.2334 10.3039 17.1854 10.283 17.1503 10.283H14.4138C14.3787 10.283 14.3307 10.3039 14.3067 10.3297L13.5089 11.191C13.4849 11.2168 13.4658 11.2661 13.4658 11.3013V36.7897H13.4663Z" fill="white"></path></g><defs><clipPath id="clip0_118_105"><rect width="48" height="48" fill="white" transform="translate(0 0.182129)"></rect></clipPath></defs></svg>