<svg xmlns="http://www.w3.org/2000/svg" width="30" height="35" viewBox="0 0 48 48"><path d="M39.8122 12.45C39.5064 12.1259 39.139 11.8661 38.7315 11.6858C38.324 11.5055 37.8847 11.4083 37.4392 11.4H26.0257L24.1672 8.68046C23.8588 8.2235 23.4428 7.84943 22.9557 7.59124C22.4686 7.33305 21.9255 7.19867 21.3742 7.19996H10.5592C9.66894 7.20273 8.81592 7.55762 8.1864 8.18714C7.55688 8.81666 7.20199 9.66968 7.19922 10.56V37.4399C7.1994 37.881 7.28669 38.3176 7.45606 38.7248C7.62544 39.1321 7.87357 39.5018 8.18622 39.8129C8.49589 40.1274 8.86538 40.3768 9.27293 40.5463C9.68047 40.7158 10.1178 40.8021 10.5592 40.7999H37.4392C38.3295 40.7971 39.1825 40.4423 39.812 39.8127C40.4415 39.1832 40.7964 38.3302 40.7992 37.4399V14.8019C40.7932 13.9185 40.4385 13.0731 39.8122 12.45ZM9.77171 9.77246C9.87394 9.66677 9.99627 9.58259 10.1315 9.52489C10.2668 9.46719 10.4122 9.43712 10.5592 9.43646H21.3742C21.5594 9.43691 21.7417 9.48317 21.9047 9.5711C22.0678 9.65903 22.2066 9.78592 22.3087 9.94046L24.4927 13.185C24.5948 13.3395 24.7336 13.4664 24.8967 13.5543C25.0597 13.6422 25.242 13.6885 25.4272 13.689H37.4392C37.7345 13.6916 38.0171 13.8094 38.227 14.0173C38.4368 14.2251 38.5572 14.5067 38.5627 14.8019V18.4034H9.43572V10.56C9.43638 10.4129 9.46645 10.2675 9.52415 10.1323C9.58185 9.99702 9.66603 9.87468 9.77171 9.77246ZM37.4392 38.5634H10.5592C10.2629 38.558 9.98028 38.4379 9.77074 38.2284C9.5612 38.0188 9.4411 37.7362 9.43572 37.4399V20.6399H38.5627V37.4399C38.5627 37.7379 38.4443 38.0237 38.2336 38.2343C38.0229 38.445 37.7371 38.5634 37.4392 38.5634Z" fill="#031339"></path><path d="M20.6409 28.4833H27.3609C27.5848 28.4844 27.804 28.4191 27.9908 28.2958C28.1777 28.1725 28.3238 27.9966 28.4109 27.7903C28.5002 27.5893 28.5279 27.3663 28.4905 27.1495C28.4531 26.9327 28.3524 26.7319 28.2009 26.5723L25.9644 24.3253C25.863 24.2098 25.739 24.1163 25.6001 24.0506C25.4611 23.9849 25.3101 23.9485 25.1565 23.9435C25.0029 23.9385 24.8499 23.965 24.707 24.0215C24.564 24.078 24.4342 24.1633 24.3255 24.2719C24.2168 24.3806 24.1316 24.5104 24.0751 24.6534C24.0186 24.7963 23.992 24.9493 23.997 25.1029C24.002 25.2566 24.0385 25.4075 24.1042 25.5465C24.1699 25.6854 24.2634 25.8094 24.3789 25.9108L24.7044 26.2363H20.6409C20.3429 26.2363 20.0572 26.3547 19.8465 26.5654C19.6358 26.7761 19.5174 27.0619 19.5174 27.3598C19.5174 27.6578 19.6358 27.9436 19.8465 28.1543C20.0572 28.365 20.3429 28.4833 20.6409 28.4833ZM27.3609 30.7198H20.6409C20.417 30.7188 20.1979 30.784 20.011 30.9074C19.8241 31.0307 19.678 31.2066 19.5909 31.4128C19.5069 31.6179 19.486 31.8433 19.5309 32.0603C19.5758 32.2773 19.6844 32.4759 19.8429 32.6308L22.0794 34.8673C22.1828 34.9714 22.3057 35.0541 22.4411 35.1107C22.5765 35.1673 22.7217 35.1967 22.8684 35.1972C23.0152 35.1977 23.1606 35.1693 23.2963 35.1136C23.4321 35.0579 23.5555 34.976 23.6597 34.8726C23.7638 34.7691 23.8465 34.6462 23.9031 34.5109C23.9597 34.3755 23.9891 34.2303 23.9896 34.0835C23.99 33.9368 23.9616 33.7914 23.9059 33.6556C23.8502 33.5199 23.7683 33.3964 23.6649 33.2923L23.3394 32.9563H27.3609C27.5169 32.9714 27.6743 32.9538 27.823 32.9045C27.9717 32.8552 28.1085 32.7753 28.2245 32.67C28.3405 32.5647 28.4332 32.4362 28.4967 32.293C28.5601 32.1497 28.5929 31.9948 28.5929 31.8381C28.5929 31.6814 28.5601 31.5264 28.4967 31.3832C28.4332 31.2399 28.3405 31.1115 28.2245 31.0062C28.1085 30.9009 27.9717 30.821 27.823 30.7717C27.6743 30.7223 27.5169 30.7047 27.3609 30.7198Z" fill="#031339"></path></svg>