<svg xmlns="http://www.w3.org/2000/svg" width="60" height="21" viewBox="0 0 60 21" fill="none"><g clip-path="url(#clip0_122_194)"><path d="M18.1049 16.0432C17.8879 16.3149 17.6836 16.5817 17.466 16.8373C17.3036 17.0279 17.1332 17.2135 16.9507 17.3847C16.357 17.9419 15.7178 18.4399 15.0049 18.839C14.3886 19.1839 13.7557 19.4952 13.0734 19.6822C12.5682 19.8207 12.0531 19.9249 11.5396 20.0307C10.8282 20.1773 10.1044 20.1494 9.38721 20.1209C8.66137 20.092 7.94751 19.9444 7.24811 19.7408C6.569 19.5431 5.91586 19.2743 5.30624 18.9213C4.81674 18.6378 4.34945 18.3104 3.89799 17.9686C3.55233 17.7069 3.22877 17.4095 2.9273 17.0972C2.36917 16.5191 1.8839 15.8809 1.48914 15.1784C1.14087 14.5587 0.82759 13.9205 0.639435 13.233C0.501141 12.7278 0.398057 12.2124 0.292092 11.6989C0.145285 10.9874 0.173641 10.2636 0.202092 9.54645C0.230885 8.82066 0.379227 8.10698 0.58287 7.40758C0.780632 6.72839 1.04929 6.07528 1.4028 5.46584C1.68663 4.97653 2.01459 4.50979 2.35564 4.05769C2.6103 3.72012 2.90065 3.40498 3.20418 3.10973C3.78817 2.54165 4.43395 2.04861 5.14644 1.64972C5.76192 1.30512 6.39845 1.00781 7.07676 0.802264C7.58547 0.648108 8.1011 0.53635 8.62502 0.447107C9.34099 0.325155 10.0616 0.33355 10.7785 0.363955C11.4931 0.394258 12.1956 0.539676 12.8864 0.738928C13.5773 0.938228 14.2393 1.20905 14.8586 1.56566C15.3487 1.84784 15.815 2.17697 16.2667 2.51851C16.6082 2.77677 16.9275 3.07066 17.2259 3.37858C17.789 3.9597 18.2783 4.60174 18.6744 5.30947C19.0189 5.92496 19.3343 6.5565 19.5159 7.24147C19.6514 7.75287 19.7618 8.27139 19.8694 8.78964C20.0183 9.5063 19.9941 10.2363 19.9584 10.958C19.9143 11.8504 19.72 12.7231 19.4182 13.5669C19.1109 14.426 18.686 15.2255 18.1683 15.9762C18.1533 15.9979 18.1308 16.0145 18.1049 16.0432ZM13.732 13.5815C13.7314 13.8598 13.7307 14.1381 13.7209 14.4264C13.7292 14.4337 13.7375 14.4411 13.7755 14.4513C15.2975 14.4513 16.8195 14.4513 18.3463 14.4513C18.3463 14.133 18.3463 13.8304 18.3463 13.5535C18.063 13.5074 17.7916 13.4697 17.5228 13.4177C17.2517 13.3652 17.0196 13.1314 17.0012 12.8875C16.9954 12.8698 16.9897 12.8522 16.9807 12.8051C16.9803 11.403 16.9865 10.0009 16.9745 8.59886C16.9716 8.25579 16.9307 7.9093 16.8695 7.57124C16.7388 6.8506 16.1636 6.28714 15.4555 6.16217C15.0968 6.09887 14.7387 6.02458 14.3694 6.09481C14.1189 6.14243 13.8566 6.14221 13.6138 6.21243C12.7084 6.4743 12.0182 7.0449 11.449 7.77764C11.411 7.82664 11.3738 7.87627 11.3192 7.94787C11.2845 7.79442 11.2604 7.66769 11.2271 7.54341C11.0672 6.94566 10.7098 6.51041 10.1353 6.27493C9.61498 6.06166 9.06631 6.03155 8.51456 6.09915C7.83878 6.18196 7.21723 6.42514 6.70096 6.86799C6.34506 7.17327 6.04123 7.53926 5.70524 7.86705C5.70524 7.86705 5.69143 7.8638 5.68975 7.83461C5.69021 7.31061 5.69066 6.78661 5.69997 6.25196C5.69133 6.24455 5.68269 6.23715 5.64441 6.22652C4.48468 6.22751 3.32495 6.22849 2.15167 6.22964C2.14817 6.23247 2.14141 6.23584 2.14176 6.23804C2.14307 6.24611 2.14676 6.25379 2.15144 6.29132C2.15144 6.57143 2.15144 6.85153 2.15144 7.13161C2.22383 7.13878 2.27141 7.14348 2.32961 7.15763L2.34337 7.16128C2.34337 7.16128 2.35741 7.15901 2.38561 7.16113C2.57371 7.18706 2.76705 7.1938 2.94867 7.24343C3.21766 7.31693 3.44555 7.4542 3.48487 7.7835C3.4843 7.79432 3.4882 7.80318 3.50222 7.83928C3.50373 7.86608 3.50656 7.89289 3.50657 7.9197C3.50679 9.52113 3.50689 11.1226 3.50627 12.724C3.50625 12.772 3.49854 12.8201 3.48574 12.8791C3.48187 12.8884 3.48228 12.8975 3.48415 12.9301C3.42092 13.21 3.21597 13.3545 2.96311 13.4123C2.70253 13.4719 2.43144 13.4856 2.1514 13.5197C2.14793 13.5226 2.1412 13.526 2.14156 13.5282C2.14285 13.5363 2.14654 13.544 2.15138 13.5815C2.15071 13.8598 2.15004 14.1381 2.1403 14.4264C2.14859 14.4337 2.15688 14.4411 2.19482 14.4513C3.7094 14.4503 5.22397 14.4492 6.75241 14.4483C6.75603 14.4454 6.76296 14.4422 6.76268 14.4398C6.76171 14.4315 6.75824 14.4234 6.75416 14.3857C6.75468 14.1081 6.7552 13.8305 6.76458 13.5422C6.75598 13.5347 6.74737 13.5272 6.70993 13.5162C6.54837 13.4956 6.38546 13.4821 6.22553 13.4526C5.93998 13.3998 5.75239 13.1984 5.70851 12.8934C5.709 12.8822 5.70489 12.8732 5.69153 12.837C5.69162 11.721 5.69171 10.605 5.70274 9.47792C5.70794 9.46807 5.70856 9.45794 5.71049 9.42488C5.92353 9.05994 6.10234 8.66872 6.35753 8.3361C6.75658 7.81596 7.26069 7.43722 7.94895 7.34451C8.53003 7.26625 8.89311 7.51427 9.02029 8.00983C9.09884 8.31592 9.14932 8.63762 9.15307 8.95302C9.16827 10.2319 9.16785 11.5112 9.15626 12.7902C9.15319 13.1295 9.05987 13.3164 8.65467 13.4435C8.48156 13.4978 8.29499 13.5093 8.10504 13.5419C8.10504 13.8325 8.10504 14.1355 8.10504 14.4429C9.53412 14.4429 10.955 14.4429 12.378 14.4429C12.378 14.1309 12.378 13.8278 12.378 13.5402C12.1931 13.5093 12.0189 13.4887 11.849 13.4495C11.6263 13.398 11.3551 13.172 11.3557 12.8561C11.3577 11.7598 11.3554 10.6634 11.3572 9.56706C11.3573 9.50487 11.3642 9.43319 11.3948 9.38207C11.615 9.01467 11.8104 8.62623 12.0747 8.29285C12.4666 7.79843 12.9488 7.43105 13.618 7.34526C14.2592 7.26307 14.5566 7.58725 14.6626 8.03712C14.7313 8.32861 14.7408 8.63403 14.7773 8.95578C14.7805 8.9626 14.7837 8.96941 14.789 9.00163C14.7911 10.2691 14.7933 11.5365 14.7951 12.8039C14.7951 12.8252 14.7897 12.8464 14.7775 12.8793C14.7735 12.8893 14.7741 12.8989 14.7768 12.9327C14.7433 13.1657 14.6096 13.3332 14.3939 13.4C14.1854 13.4645 13.9623 13.4815 13.732 13.5197C13.7286 13.5226 13.7218 13.526 13.7222 13.5282C13.7235 13.5363 13.7272 13.544 13.732 13.5815Z" fill="#048CCB"></path><path d="M42.013 12.9609C42.3793 13.1844 42.7752 13.2044 43.1847 13.1921C43.1847 13.5261 43.1847 13.851 43.1847 14.1764C41.626 14.1764 40.0667 14.1764 38.4837 14.1764C38.4837 13.8495 38.4837 13.5391 38.4837 13.2036C38.5384 13.2008 38.6095 13.198 38.6806 13.1934C38.9171 13.1781 39.1427 13.1387 39.3349 12.978C39.4771 12.8593 39.5448 12.7065 39.5455 12.535C39.5507 11.2343 39.5595 9.93336 39.5416 8.63284C39.5362 8.23486 39.4756 7.83088 39.2263 7.49019C39.0328 7.22575 38.7816 7.07534 38.4449 7.06241C37.7799 7.03688 37.2296 7.30067 36.727 7.7063C36.269 8.07594 35.9115 8.52192 35.6693 9.05822C35.6381 9.12729 35.6155 9.20723 35.6152 9.28223C35.6118 10.3519 35.6234 11.4217 35.6074 12.4911C35.6014 12.8945 35.8833 13.0974 36.1988 13.1589C36.3484 13.188 36.5029 13.192 36.6668 13.2085C36.6668 13.5112 36.6668 13.8255 36.6668 14.1506C35.112 14.1506 33.5508 14.1506 31.9786 14.1506C31.9786 13.8437 31.9786 13.5295 31.9786 13.2089C32.1753 13.1934 32.3807 13.186 32.5835 13.1589C32.8069 13.1291 33.0158 13.0618 33.1876 12.8974C33.3086 12.7817 33.3531 12.6433 33.3533 12.4893C33.3557 10.8499 33.3553 9.21052 33.3543 7.57113C33.3541 7.31005 33.179 7.08206 32.8811 7.00416C32.5895 6.92791 32.2887 6.88699 31.9766 6.82764C31.9766 6.56016 31.9766 6.25671 31.9766 5.94431C33.182 5.94431 34.3884 5.94431 35.6065 5.94431C35.6065 6.45037 35.6065 6.95801 35.6065 7.39111C35.6995 7.32014 35.8399 7.23412 35.9546 7.1219C36.5198 6.56925 37.159 6.1368 37.928 5.93072C38.234 5.84872 38.554 5.79749 38.8702 5.78068C39.3138 5.75709 39.7615 5.74749 40.1987 5.87009C40.7449 6.02328 41.2171 6.28279 41.4914 6.80296C41.6343 7.07405 41.7383 7.3662 41.7409 7.67951C41.7539 9.25172 41.7657 10.824 41.7716 12.3962C41.7724 12.6208 41.8273 12.8091 42.013 12.9609Z" fill="#048CCB"></path><path d="M22.1523 7.39411C21.9266 7.25728 21.7222 7.09229 21.4886 7.00952C21.2413 6.92187 20.9663 6.91242 20.6878 6.86624C20.6878 6.58443 20.6878 6.27019 20.6878 5.94564C22.3192 5.94564 23.9557 5.94564 25.6026 5.94564C25.6026 6.25405 25.6026 6.56825 25.6026 6.90314C25.3745 6.90314 25.1398 6.89322 24.9066 6.9079C24.81 6.91398 24.6534 6.95412 24.6364 7.01178C24.6094 7.10378 24.6457 7.24774 24.7088 7.32701C24.9687 7.65321 25.2499 7.96227 25.5209 8.27966C25.7088 8.49968 25.8928 8.72302 26.0964 8.96633C26.2816 8.76489 26.4516 8.57586 26.6263 8.3914C26.7519 8.25879 26.888 8.13602 27.0123 8.0022C27.2034 7.79634 27.4002 7.59383 27.5695 7.37081C27.6303 7.29073 27.6658 7.13172 27.626 7.052C27.587 6.97378 27.4406 6.91878 27.3363 6.90959C27.1025 6.88899 26.8656 6.90314 26.6216 6.90314C26.6216 6.58063 26.6216 6.2665 26.6216 5.94385C27.8712 5.94385 29.1207 5.94385 30.3787 5.94385C30.3787 6.25793 30.3787 6.57208 30.3787 6.85662C30.0419 6.92665 29.7057 6.9755 29.3837 7.07185C29.2061 7.125 29.0268 7.23109 28.8921 7.35935C28.2475 7.97319 27.6181 8.60301 26.9828 9.22655C26.8567 9.3503 26.7281 9.47145 26.5964 9.59786C26.7933 9.82216 26.9748 10.035 27.1629 10.2418C27.6315 10.757 28.1048 11.2678 28.5727 11.7835C28.8109 12.0461 29.0291 12.3279 29.2783 12.5792C29.6804 12.9848 30.1542 13.2438 30.7628 13.1889C30.7628 13.5094 30.7628 13.8237 30.7628 14.1496C29.0494 14.1496 27.3268 14.1496 25.5925 14.1496C25.5925 13.8561 25.5925 13.5526 25.5925 13.2257C25.8 13.2257 26.0178 13.2297 26.2354 13.2244C26.3885 13.2206 26.5421 13.21 26.6941 13.1915C26.8515 13.1724 26.9274 13.0247 26.8481 12.8692C26.7873 12.7499 26.7024 12.6404 26.6156 12.5372C26.1371 11.9679 25.655 11.4017 25.1732 10.8352C25.1281 10.7821 25.0763 10.7347 25.0113 10.6681C24.7615 10.9334 24.5149 11.1956 24.268 11.4575C24.2422 11.4848 24.2146 11.5104 24.1884 11.5374C23.8531 11.8833 23.5173 12.2287 23.1835 12.5759C23.1405 12.6207 23.0909 12.6699 23.0731 12.7261C22.972 13.0456 23.018 13.1567 23.3589 13.1895C23.7035 13.2227 24.0512 13.2241 24.4087 13.2399C24.4087 13.5328 24.4087 13.8363 24.4087 14.1505C23.0476 14.1505 21.6799 14.1505 20.3013 14.1505C20.3013 13.8434 20.3013 13.5292 20.3013 13.2254C20.533 13.1873 20.7725 13.1622 21.0045 13.1064C21.3905 13.0135 21.7062 12.7873 21.9827 12.5137C22.8195 11.6857 23.6489 10.8503 24.4839 10.015C24.0122 9.48976 23.5397 8.96666 23.0708 8.4403C22.7647 8.09669 22.4639 7.74834 22.1523 7.39411Z" fill="#048CCB"></path><path d="M47.0322 11.9339C47.1952 12.2178 47.3293 12.5112 47.5256 12.7543C47.781 13.0706 48.1412 13.2546 48.5444 13.3195C49.1697 13.42 49.7855 13.3674 50.3613 13.0917C50.9732 12.7986 51.378 12.3136 51.5807 11.6635C51.5961 11.6142 51.6044 11.5595 51.632 11.5182C51.6528 11.4871 51.7041 11.4498 51.734 11.4556C52.0495 11.517 52.3634 11.5865 52.6878 11.6559C52.5004 12.2688 52.2431 12.8258 51.8154 13.3037C51.2542 13.9306 50.5443 14.2862 49.7358 14.4049C49.2359 14.4783 48.7163 14.4285 48.206 14.4165C47.7437 14.4057 47.3019 14.2817 46.8666 14.1307C46.4931 14.0011 46.1628 13.7987 45.8595 13.5512C45.1934 13.0075 44.8201 12.2846 44.6231 11.465C44.5598 11.2013 44.5395 10.9255 44.5191 10.6538C44.4959 10.3456 44.4721 10.0346 44.4882 9.72684C44.5392 8.74972 44.7959 7.83337 45.4163 7.05768C46.0202 6.30253 46.8256 5.87424 47.7674 5.67213C48.349 5.54731 48.9346 5.56456 49.5168 5.58952C50.0467 5.61223 50.5684 5.74446 51.0489 5.9783C51.608 6.25035 52.0566 6.65574 52.3746 7.19719C52.6513 7.66833 52.8094 8.18347 52.8964 8.71601C52.9517 9.05451 52.9457 9.40297 52.9682 9.74691C52.9726 9.81417 52.9813 9.88116 52.9891 9.95919C50.9086 9.95919 48.8206 9.95919 46.7105 9.95919C46.7013 10.6406 46.7904 11.2924 47.0322 11.9339ZM48.0654 6.7245C47.1074 7.1177 46.7606 8.27294 46.7559 9.09009C48.1449 9.09009 49.5339 9.09009 50.9596 9.09009C50.9293 8.81965 50.9135 8.55705 50.8681 8.29965C50.7928 7.8731 50.6138 7.48606 50.332 7.15778C49.7453 6.47415 48.8278 6.40139 48.0654 6.7245Z" fill="#048CCB"></path><path d="M56.8194 14.1536C56.191 13.9373 55.8258 13.4992 55.6811 12.8759C55.6351 12.6779 55.6161 12.4694 55.6155 12.2655C55.6105 10.5618 55.6127 8.8581 55.6127 7.15438C55.6127 7.09659 55.6127 7.03879 55.6127 6.96843C55.1363 6.96843 54.6716 6.96843 54.2002 6.96843C54.2002 6.68453 54.2002 6.41339 54.2002 6.16958C54.5417 6.10089 54.8824 6.06392 55.202 5.96134C55.8206 5.76285 56.1765 5.3095 56.2859 4.67647C56.3423 4.35041 56.3557 4.01681 56.3858 3.68638C56.3905 3.63505 56.381 3.58243 56.3774 3.51682C56.8461 3.48017 57.3307 3.44229 57.8292 3.40332C57.8292 4.25263 57.8292 5.08283 57.8292 5.92571C58.5427 5.92571 59.2439 5.92571 59.9791 5.92571C59.9538 6.33354 59.9294 6.72691 59.9053 7.11456C59.5537 7.07522 59.2172 7.02882 58.8791 7.0022C58.5396 6.97546 58.1985 6.96844 57.8471 6.95227C57.8435 7.01983 57.8388 7.0661 57.8388 7.11238C57.8384 8.93971 57.8355 10.7671 57.8408 12.5944C57.842 12.9996 58.0518 13.2526 58.5092 13.265C58.9988 13.2782 59.1395 13.0005 59.1579 12.6099C59.1733 12.2838 59.1611 11.9563 59.1611 11.6211C59.4301 11.6211 59.6905 11.6211 59.9669 11.6211C59.9533 12.1711 60.0373 12.7288 59.8639 13.2641C59.7187 13.7121 59.387 13.9955 58.9504 14.1616C58.597 14.2961 58.2296 14.2906 57.8596 14.2936C57.5087 14.2965 57.167 14.2569 56.8194 14.1536Z" fill="#048CCB"></path><path d="M2.31903 7.14822C2.27145 7.14351 2.22388 7.1388 2.15148 7.13164C2.15148 6.85156 2.15148 6.57145 2.15546 6.26895C2.16139 6.24086 2.16333 6.23518 2.16527 6.2295C3.325 6.22852 4.48473 6.22753 5.66244 6.23695C5.684 6.25245 5.68758 6.25754 5.69117 6.26264C5.69071 6.78664 5.69025 7.31064 5.68718 7.85618C5.69444 7.87786 5.70431 7.878 5.71418 7.87814C6.04128 7.53928 6.34511 7.1733 6.70101 6.86801C7.21727 6.42516 7.83883 6.18199 8.51461 6.09918C9.06636 6.03157 9.61503 6.06169 10.1354 6.27495C10.7099 6.51043 11.0672 6.94568 11.2272 7.54343C11.2605 7.66772 11.2846 7.79445 11.3192 7.9479C11.3738 7.8763 11.411 7.82666 11.4491 7.77767C12.0182 7.04492 12.7084 6.47432 13.6139 6.21246C13.8567 6.14224 14.119 6.14246 14.3694 6.09484C14.7388 6.02461 15.0969 6.0989 15.4555 6.16219C16.1636 6.28717 16.7389 6.85062 16.8695 7.57126C16.9308 7.90932 16.9716 8.25581 16.9746 8.59889C16.9865 10.0009 16.9803 11.403 16.9779 12.829C16.9824 12.8706 16.9896 12.8884 16.9968 12.9062C17.0197 13.1314 17.2517 13.3653 17.5229 13.4177C17.7916 13.4697 18.0631 13.5074 18.3463 13.5535C18.3463 13.8305 18.3463 14.1331 18.3463 14.4514C16.8196 14.4514 15.2975 14.4514 13.7577 14.4414C13.7366 14.4264 13.7333 14.4214 13.7301 14.4164C13.7307 14.1381 13.7314 13.8598 13.736 13.559C13.7418 13.5308 13.7437 13.5251 13.7456 13.5194C13.9623 13.4815 14.1855 13.4645 14.3939 13.4C14.6096 13.3332 14.7434 13.1658 14.7839 12.9148C14.7974 12.8861 14.796 12.8764 14.7868 12.8677C14.7897 12.8465 14.7951 12.8252 14.7951 12.8039C14.7934 11.5365 14.7912 10.2691 14.7924 8.98364C14.7895 8.95483 14.7832 8.94403 14.7769 8.93323C14.7408 8.63405 14.7313 8.32864 14.6626 8.03714C14.5567 7.58727 14.2593 7.26309 13.6181 7.34528C12.9488 7.43108 12.4667 7.79845 12.0747 8.29288C11.8104 8.62625 11.6151 9.0147 11.3949 9.38209C11.3642 9.43321 11.3574 9.50489 11.3573 9.56709C11.3554 10.6634 11.3578 11.7598 11.3557 12.8562C11.3551 13.1721 11.6263 13.398 11.849 13.4495C12.0189 13.4887 12.1932 13.5093 12.378 13.5403C12.378 13.8278 12.378 14.1309 12.378 14.443C10.9551 14.443 9.53417 14.443 8.10509 14.443C8.10509 14.1355 8.10509 13.8325 8.10509 13.5419C8.29504 13.5093 8.4816 13.4979 8.65472 13.4435C9.05991 13.3164 9.15323 13.1295 9.15631 12.7902C9.16789 11.5112 9.16831 10.232 9.15311 8.95304C9.14936 8.63765 9.09889 8.31595 9.02034 8.00986C8.89316 7.5143 8.53007 7.26627 7.949 7.34454C7.26073 7.43724 6.75663 7.81598 6.35758 8.33612C6.10239 8.66874 5.92358 9.05996 5.70082 9.44131C5.69136 9.46817 5.6916 9.47862 5.69185 9.48907C5.69176 10.6051 5.69167 11.7211 5.6899 12.8589C5.69346 12.8898 5.6987 12.899 5.70393 12.9081C5.75243 13.1985 5.94003 13.3998 6.22558 13.4526C6.38551 13.4822 6.54841 13.4956 6.72751 13.5269C6.74862 13.5426 6.75219 13.5477 6.75577 13.5529C6.75525 13.8305 6.75472 14.1081 6.74958 14.4082C6.74284 14.4364 6.74072 14.4423 6.7386 14.4482C5.22402 14.4492 3.70944 14.4503 2.17706 14.4414C2.15598 14.4264 2.1527 14.4214 2.14941 14.4164C2.15008 14.1381 2.15075 13.8598 2.15532 13.559C2.16114 13.5308 2.16307 13.5251 2.165 13.5194C2.43149 13.4856 2.70257 13.472 2.96316 13.4124C3.21602 13.3545 3.42097 13.21 3.49097 12.9129C3.5045 12.8856 3.5034 12.8764 3.49446 12.8681C3.49859 12.8201 3.5063 12.7721 3.50632 12.724C3.50693 11.1226 3.50684 9.52115 3.50661 7.91972C3.50661 7.89292 3.50378 7.86611 3.5035 7.81776C3.50476 7.78439 3.49971 7.7754 3.48958 7.76928C3.4456 7.45422 3.21771 7.31695 2.94872 7.24345C2.7671 7.19383 2.57376 7.18708 2.3666 7.15391C2.33754 7.13813 2.32804 7.13865 2.31903 7.14822Z" fill="white"></path><path d="M16.999 12.8964C16.9895 12.888 16.9823 12.8702 16.9795 12.8433C16.9897 12.8518 16.9954 12.8694 16.999 12.8964Z" fill="#97C4E3"></path><path d="M6.74525 14.4481C6.74044 14.4422 6.74256 14.4363 6.75009 14.4229C6.75801 14.4234 6.76148 14.4314 6.76245 14.4397C6.76273 14.4421 6.7558 14.4453 6.74525 14.4481Z" fill="#96C3E3"></path><path d="M2.14453 14.4214C2.15235 14.4214 2.15563 14.4264 2.1619 14.44C2.15658 14.4411 2.14829 14.4338 2.14453 14.4214Z" fill="#A3CAE6"></path><path d="M13.7251 14.4214C13.7329 14.4214 13.7362 14.4264 13.7425 14.44C13.7371 14.4411 13.7289 14.4338 13.7251 14.4214Z" fill="#A3CAE6"></path><path d="M13.7388 13.5195C13.7437 13.5251 13.7417 13.5308 13.7349 13.5441C13.7272 13.5439 13.7235 13.5363 13.7222 13.5282C13.7218 13.526 13.7286 13.5226 13.7388 13.5195Z" fill="#A3CAE6"></path><path d="M6.75996 13.5475C6.75196 13.5476 6.74839 13.5425 6.7417 13.5285C6.74719 13.5271 6.75579 13.5346 6.75996 13.5475Z" fill="#96C3E3"></path><path d="M2.15824 13.5195C2.16308 13.5251 2.16115 13.5308 2.1543 13.5441C2.1466 13.5439 2.14291 13.5363 2.14162 13.5282C2.14126 13.526 2.14799 13.5226 2.15824 13.5195Z" fill="#A3CAE6"></path><path d="M14.7818 12.8735C14.7956 12.8764 14.797 12.8861 14.7849 12.9026C14.7738 12.8989 14.7731 12.8893 14.7818 12.8735Z" fill="#A1C9E5"></path><path d="M5.70592 12.9004C5.69838 12.8986 5.69314 12.8894 5.69189 12.8731C5.70461 12.8728 5.70873 12.8819 5.70592 12.9004Z" fill="#95C3E3"></path><path d="M3.49013 12.8735C3.5034 12.8763 3.5045 12.8855 3.49238 12.9009C3.48233 12.8974 3.48193 12.8883 3.49013 12.8735Z" fill="#A2C9E6"></path><path d="M5.69718 9.48351C5.69146 9.47862 5.69122 9.46817 5.69774 9.45264C5.70847 9.45797 5.70785 9.4681 5.69718 9.48351Z" fill="#95C3E3"></path><path d="M14.7769 8.94435C14.7829 8.94386 14.7892 8.95466 14.7911 8.97077C14.7835 8.96927 14.7803 8.96246 14.7769 8.94435Z" fill="#A1C9E5"></path><path d="M5.7097 7.87248C5.70428 7.87788 5.69441 7.87774 5.68799 7.87065C5.69144 7.8637 5.70526 7.86695 5.7097 7.87248Z" fill="#95C2E3"></path><path d="M3.48724 7.77595C3.4997 7.77496 3.50475 7.78394 3.50067 7.8027C3.48824 7.80276 3.48434 7.7939 3.48724 7.77595Z" fill="#A2C9E6"></path><path d="M2.32422 7.15252C2.32791 7.13824 2.33742 7.13772 2.35238 7.15243C2.35733 7.15862 2.34329 7.16089 2.34329 7.16089C2.34329 7.16089 2.32954 7.15724 2.32422 7.15252Z" fill="#A0C9E5"></path><path d="M5.69558 6.2572C5.68757 6.25743 5.68399 6.25234 5.67725 6.23845C5.68273 6.23706 5.69136 6.24447 5.69558 6.2572Z" fill="#95C2E3"></path><path d="M2.1583 6.22949C2.16313 6.23509 2.16119 6.24078 2.15432 6.254C2.14661 6.25372 2.14292 6.24605 2.14162 6.23798C2.14126 6.23577 2.14802 6.23241 2.1583 6.22949Z" fill="#A0C9E5"></path></g><defs><clipPath id="clip0_122_194"><rect width="60" height="20.5484" fill="white"></rect></clipPath></defs></svg>