<svg xmlns="http://www.w3.org/2000/svg" width="930" height="415" viewBox="0 0 930 415" fill="none"><path d="M387.126 225.055H446.38L415.049 174.648L357.545 265.787H331.373L401.318 156.309C404.359 151.886 409.427 149.213 415.049 149.213C420.486 149.213 425.554 151.793 428.503 156.125L498.724 265.787H472.552L460.204 245.421H400.212L387.126 225.055ZM658.978 245.421V150.319H636.769V254.728C636.769 257.585 637.875 260.35 639.994 262.469C642.114 264.589 644.971 265.787 648.104 265.787H749.38L762.466 245.421H658.978ZM291.563 228.373C313.128 228.373 330.637 210.956 330.637 189.392C330.637 167.828 313.128 150.319 291.563 150.319H194.406V265.787H216.606V170.685H290.089C300.41 170.685 308.704 179.071 308.704 189.392C308.704 199.713 300.41 208.099 290.089 208.099L227.48 208.007L293.775 265.787H326.029L281.427 228.373L291.563 228.373ZM57.7439 265.787C25.8673 265.787 0 239.984 0 208.099C0 176.214 25.8676 150.319 57.7436 150.319H124.858C156.743 150.319 182.592 176.214 182.592 208.099C182.592 239.984 156.743 265.787 124.858 265.787H57.7439ZM123.366 245.421C144.017 245.421 160.743 228.741 160.743 208.099C160.743 187.457 144.017 170.685 123.366 170.685H59.227C38.5847 170.685 21.8493 187.457 21.8493 208.099C21.8493 228.741 38.5847 245.421 59.227 245.421H123.366ZM545.077 265.787C513.192 265.787 487.297 239.984 487.297 208.099C487.297 176.214 513.192 150.319 545.077 150.319H624.789L611.795 170.685H546.551C525.909 170.685 509.137 187.457 509.137 208.099C509.137 228.741 525.909 245.421 546.551 245.421H626.632L613.546 265.787H545.077ZM816.652 245.421C799.603 245.421 785.135 233.994 780.712 218.236H875.63L888.716 197.87H780.712C785.135 182.204 799.603 170.685 816.652 170.685H881.804L894.982 150.319H815.177C783.292 150.319 757.398 176.214 757.398 208.099C757.398 239.984 783.292 265.787 815.177 265.787H883.647L896.733 245.421H816.652ZM906.87 162.575C906.866 161.243 907.126 159.923 907.634 158.692C908.142 157.46 908.888 156.341 909.83 155.399C910.772 154.457 911.891 153.71 913.123 153.202C914.354 152.694 915.674 152.435 917.007 152.439C922.72 152.439 927.235 156.954 927.235 162.575C927.235 168.289 922.72 172.804 917.007 172.804C911.385 172.804 906.87 168.289 906.87 162.575ZM917.007 175.661C924.194 175.661 930 169.855 930 162.668C930 155.48 924.194 149.674 917.007 149.674C909.91 149.674 904.105 155.48 904.105 162.668C904.105 169.855 909.91 175.661 917.007 175.661ZM915.808 154.927C917.836 154.927 918.665 155.019 919.587 155.387C922.167 156.217 922.443 158.521 922.443 159.442C922.443 159.626 922.443 160.087 922.259 160.64C922.167 161.193 921.798 162.299 920.508 163.128C920.324 163.22 920.232 163.313 919.863 163.497L923.181 169.487H919.956L917.007 163.958H914.979V169.487H912.123V154.927H915.808ZM916.822 161.562C917.743 161.47 918.665 161.47 919.218 160.64C919.494 160.272 919.587 159.903 919.587 159.35C919.587 158.613 919.126 157.968 918.481 157.599C917.836 157.323 917.191 157.323 915.808 157.323H914.979V161.562H916.822Z" fill="#F80000"></path></svg>