<svg xmlns="http://www.w3.org/2000/svg" width="60" height="14" viewBox="0 0 60 14" fill="none"><g clip-path="url(#clip0_118_153)"><path d="M4.06707 0.993593V3.6715H7.58695V4.87563H4.06707V9.99539C4.06707 10.6915 4.1991 11.1771 4.46281 11.4521C4.72671 11.7271 5.18713 11.8647 5.84389 11.8647H7.58695V13.1026H5.69228C4.53018 13.1026 3.71066 12.8696 3.23353 12.4037C2.75623 11.9377 2.51766 11.1349 2.51766 9.99539V4.87563H0V3.6715H2.51766V0.993593H4.06707ZM18.1213 7.25856V13.1025H16.5634V7.25856C16.5634 6.41102 16.4147 5.78784 16.117 5.38922C15.8195 4.9906 15.3535 4.79138 14.7192 4.79138C13.9951 4.79138 13.4364 5.04952 13.0435 5.56599C12.6562 6.07689 12.4626 6.81234 12.4626 7.77234V13.1025H10.9132V0H12.4626V5.08599C12.7376 4.54707 13.1109 4.14018 13.5825 3.86515C14.054 3.58437 14.6125 3.44407 15.2581 3.44407C16.2181 3.44407 16.9338 3.76132 17.4054 4.39563C17.8825 5.02437 18.1213 5.97862 18.1213 7.25856ZM35.9308 8.36174H35.4172C34.5135 8.36174 33.8314 8.5218 33.371 8.84174C32.9163 9.15611 32.6889 9.62767 32.6889 10.2564C32.6889 10.8234 32.8601 11.264 33.2026 11.5784C33.545 11.8928 34.0195 12.0499 34.6257 12.0499C35.479 12.0499 36.1498 11.7553 36.6383 11.1657C37.1265 10.5708 37.3735 9.75108 37.3793 8.70701V8.36174H35.9308ZM38.9371 7.72168V13.1026H37.3793V11.7047C37.048 12.266 36.6298 12.6816 36.1245 12.951C35.6249 13.2149 35.0158 13.3468 34.2972 13.3468C33.3374 13.3468 32.571 13.0773 31.9985 12.5384C31.4258 11.9939 31.1395 11.2669 31.1395 10.3574C31.1395 9.30772 31.4903 8.51048 32.1922 7.96599C32.8994 7.4215 33.9352 7.14916 35.2994 7.14916H37.3793V6.90503C37.3735 6.15269 37.1828 5.6082 36.8066 5.27138C36.4304 4.92898 35.8299 4.7576 35.0046 4.7576C34.4768 4.7576 33.9437 4.83341 33.4047 4.98503C32.8658 5.13665 32.3409 5.35832 31.83 5.65024V4.10084C32.4027 3.88186 32.9499 3.7191 33.4721 3.6124C33.9997 3.50012 34.5106 3.44407 35.0046 3.44407C35.785 3.44407 36.4502 3.55922 37.0002 3.78934C37.556 4.01946 38.0052 4.36473 38.3475 4.82497C38.561 5.10575 38.7126 5.45371 38.8024 5.86922C38.8922 6.27898 38.9371 6.89659 38.9371 7.72168ZM49.244 7.25856V13.1025H47.6862V7.25856C47.6862 6.41102 47.5374 5.78784 47.2398 5.38922C46.9423 4.9906 46.4763 4.79138 45.842 4.79138C45.1178 4.79138 44.5592 5.04952 44.1663 5.56599C43.779 6.07689 43.5853 6.81234 43.5853 7.77234V13.1025H42.0359V3.67132H43.5853V5.08599C43.8604 4.54707 44.2337 4.14018 44.7052 3.86515C45.1768 3.58437 45.7353 3.44407 46.3809 3.44407C47.3409 3.44407 48.0566 3.76132 48.5281 4.39563C49.0053 5.02437 49.244 5.97862 49.244 7.25856ZM55.9552 4.7576C55.1693 4.7576 54.5741 5.06371 54.1699 5.67557C53.7657 6.28743 53.5637 7.19407 53.5637 8.39533C53.5637 9.5912 53.7657 10.4978 54.1699 11.1153C54.5741 11.7271 55.1693 12.0331 55.9552 12.0331C56.7467 12.0331 57.3446 11.7271 57.7487 11.1153C58.1529 10.4978 58.355 9.5912 58.355 8.39533C58.355 7.19407 58.1529 6.28743 57.7487 5.67557C57.3446 5.06371 56.7467 4.7576 55.9552 4.7576ZM55.9552 3.44407C57.2632 3.44407 58.2625 3.86784 58.9529 4.71557C59.649 5.56329 59.9971 6.78988 59.9971 8.39533C59.9971 10.0065 59.6519 11.236 58.9613 12.0837C58.271 12.9257 57.2687 13.3468 55.9552 13.3468C54.6472 13.3468 53.6479 12.9257 52.9574 12.0837C52.267 11.236 51.9217 10.0065 51.9217 8.39533C51.9217 6.78988 52.267 5.56329 52.9574 4.71557C53.6479 3.86784 54.6472 3.44407 55.9552 3.44407Z" fill="#11557C" stroke="white" stroke-width="0.2" stroke-miterlimit="1.414" stroke-linejoin="round"></path><path d="M24.1237 13.6033C22.8765 13.361 22.1469 13.0281 21.4444 12.0216C20.9344 11.291 20.8524 10.6924 20.8427 9.66306C20.8381 9.17138 20.8521 9.06468 20.9523 8.82198L21.0673 8.54408L21.2042 8.84084C21.3617 9.18216 21.5159 9.42342 21.6172 9.48719C21.6774 9.52527 21.6932 9.44587 21.7257 8.94036C21.7465 8.61522 21.7776 8.25629 21.7947 8.14276C21.8257 7.93689 21.8265 7.93599 22.0979 7.83288C22.6151 7.63617 23.5771 7.61102 25.3097 7.74899C26.1039 7.8124 27.8132 7.84725 27.9946 7.69007C28.1827 7.52695 28.2055 7.45258 28.146 7.00563C28.0758 6.47785 28.1504 6.35821 27.9269 5.91773C27.3475 4.77558 26.3865 4.28911 25.1153 4.28587C23.9703 4.283 23.052 4.70192 22.4967 5.63462C22.0083 6.45522 21.7905 7.33474 21.6617 9.00611L21.6256 9.47533L21.5169 9.31905C20.9962 8.5712 20.6733 7.26539 20.8974 6.2718C21.0707 5.5024 21.4248 4.83396 21.9995 4.1912C22.4954 3.63629 23.3117 3.31761 24.2906 3.13078C24.921 3.0106 25.3523 3.0106 25.9828 3.13078C26.9617 3.31761 27.6711 3.67438 28.1671 4.22929C28.7356 4.86522 29.0953 5.53959 29.2629 6.28438C29.376 6.78719 29.3944 7.54959 29.2992 7.79031C29.2158 8.0012 28.6011 8.68761 28.5804 8.59276C28.5718 8.55396 28.5896 8.48695 28.6198 8.4442C28.7044 8.32402 28.6278 8.27462 28.4992 8.36641C28.3993 8.43773 28.3819 8.43971 28.3237 8.38635C28.2008 8.27408 28.1557 8.39066 28.2684 8.52917C28.3986 8.68941 28.401 8.7433 28.2775 8.7433C28.2247 8.7433 28.1694 8.75839 28.1547 8.77653C28.037 8.92096 26.2136 8.9551 24.7661 8.83977C23.6956 8.75444 22.8445 8.77276 22.6454 8.88504C22.4816 8.97755 22.2646 9.3045 22.1913 9.56911C22.1218 9.82078 22.162 10.5841 22.2612 10.8904C22.3613 11.1993 22.7159 11.6495 23.0859 11.9371C24.1203 12.7412 25.828 12.7504 26.8681 11.9576C27.391 11.559 27.8132 10.9186 27.6892 10.7118C27.658 10.6595 27.6323 10.5577 27.6323 10.4856C27.6323 10.3545 27.7823 10.084 27.8805 10.0378C28.0192 9.97276 28.1757 9.71336 28.1757 9.54863C28.1757 9.35803 28.243 9.23138 28.3444 9.23138C28.5019 9.23138 28.4832 8.74204 28.3176 8.5324C28.1904 8.37144 28.2019 8.33821 28.3487 8.44312C28.4435 8.51066 28.4723 8.51767 28.4723 8.47294C28.4723 8.44096 28.5098 8.39156 28.5556 8.36318C28.6302 8.31719 28.6341 8.31971 28.5926 8.38671C28.5673 8.42803 28.5529 8.62887 28.5608 8.83312C28.5739 9.16977 28.586 9.21054 28.69 9.27288C28.7836 9.32875 28.8095 9.38803 28.8307 9.59605C28.8488 9.77515 28.9039 9.92641 29.0164 10.1064C29.1465 10.3144 29.1716 10.3935 29.1511 10.5311C29.1371 10.6261 29.0825 10.7359 29.0265 10.782C28.9025 10.8841 28.401 11.5439 28.3503 11.6713C28.2587 11.9023 27.9506 12.387 27.7496 12.6167C27.4388 12.9719 27.1032 13.1853 26.5237 13.3967C25.6577 13.7127 24.9844 13.7705 24.1237 13.6033Z" fill="#11557C" stroke="white" stroke-width="0.2"></path></g><defs><clipPath id="clip0_118_153"><rect width="60" height="13.8323" fill="white"></rect></clipPath></defs></svg>