<svg xmlns="http://www.w3.org/2000/svg" width="48" height="48" viewBox="0 0 48 48" fill="none"><g clip-path="url(#clip0_1102_91044)"><path d="M4.32573 35.1481C1.22476 32.6781 1.22476 28.6735 4.32573 26.2036L18.1352 15.204C21.2362 12.734 26.2638 12.734 29.3647 15.204L43.1743 26.2036C46.2752 28.6735 46.2752 32.6781 43.1743 35.1481L29.3647 46.1475C26.2638 48.6175 21.2362 48.6175 18.1352 46.1475L4.32573 35.1481Z" fill="#5299DA"></path><g filter="url(#filter0_d_1102_91044)"><path d="M4.32573 28.7991C1.22476 26.3292 1.22476 22.3246 4.32573 19.8547L18.1352 8.85519C21.2362 6.38523 26.2638 6.38523 29.3647 8.85519L43.1743 19.8547C46.2752 22.3246 46.2752 26.3292 43.1743 28.7991L29.3647 39.7987C26.2638 42.2687 21.2362 42.2687 18.1352 39.7987L4.32573 28.7991Z" fill="#52CEDA"></path></g><g filter="url(#filter1_d_1102_91044)"><path d="M4.32573 21.7965C1.22476 19.3265 1.22476 15.3219 4.32573 12.852L18.1352 1.85246C21.2362 -0.617488 26.2638 -0.617488 29.3647 1.85246L43.1743 12.852C46.2752 15.3219 46.2752 19.3265 43.1743 21.7965L29.3647 32.796C26.2638 35.266 21.2362 35.266 18.1352 32.796L4.32573 21.7965Z" fill="white"></path></g><path fill-rule="evenodd" clip-rule="evenodd" d="M18.9739 9.38971C15.3488 9.35366 13.3553 12.2587 14.4394 14.6582C14.9941 15.8858 16.3408 16.9707 18.6239 17.4968C20.8997 18.0211 24.102 17.9908 28.4002 17.0149C28.4365 17.0067 28.465 16.9874 28.4817 16.9629C28.5124 16.9496 28.5367 16.9269 28.547 16.898C29.7722 13.4743 29.8102 10.9237 29.152 9.11099C28.4915 7.29244 27.1295 6.21975 25.5882 5.77796C22.5758 4.91443 18.9288 6.50216 18.9739 9.38971Z" fill="#FF3D4D"></path></g><defs><filter id="filter0_d_1102_91044" x="0" y="6.00272" width="47.5" height="38.6485" filterUnits="userSpaceOnUse" color-interpolation-filters="sRGB"><feGaussianBlur stdDeviation="1"></feGaussianBlur></filter><filter id="filter1_d_1102_91044" x="0" y="-1" width="47.5" height="38.6485" filterUnits="userSpaceOnUse" color-interpolation-filters="sRGB"><feGaussianBlur stdDeviation="1"></feGaussianBlur></filter><clipPath id="clip0_1102_91044"><rect width="48" height="48" fill="white"></rect></clipPath></defs></svg>