<svg xmlns="http://www.w3.org/2000/svg" width="43" height="48" viewBox="0 0 43 48" fill="none"><g clip-path="url(#clip0_231_522)"><path d="M42.1116 36C42.4463 35.4202 42.6543 34.767 42.6543 34.1805V13.8195C42.6543 13.2329 42.4466 12.5799 42.1118 12.0001L21.3271 24.0001L42.1116 36Z" fill="#00599C"></path><path d="M23.1739 47.5599L40.8071 37.3795C41.3151 37.0862 41.7768 36.5798 42.1114 35.9999L21.327 24L0.54248 36.0001C0.877163 36.5798 1.33897 37.0864 1.84678 37.3795L19.48 47.5599C20.4958 48.1465 22.1582 48.1465 23.1739 47.5599Z" fill="#004482"></path><path d="M42.1118 11.9999C41.7769 11.4201 41.3151 10.9136 40.8073 10.6204L23.1741 0.439925C22.1583 -0.146642 20.4959 -0.146642 19.4802 0.439925L1.84696 10.6204C0.831061 11.2068 0 12.6464 0 13.8194V34.1804C0 34.767 0.207835 35.4202 0.542657 35.9999L21.3271 24L42.1118 11.9999Z" fill="#659AD2"></path><path d="M21.327 38.218C13.4871 38.218 7.10889 31.8398 7.10889 24C7.10889 16.1601 13.4871 9.78186 21.327 9.78186C26.3858 9.78186 31.1039 12.5042 33.6397 16.8864L27.4865 20.4471C26.2173 18.2536 23.857 16.8909 21.327 16.8909C17.407 16.8909 14.2179 20.0799 14.2179 24C14.2179 27.9198 17.407 31.109 21.327 31.109C23.8572 31.109 26.2176 29.7463 27.4869 27.5524L33.6401 31.1129C31.1043 35.4956 26.3861 38.218 21.327 38.218Z" fill="white"></path><path d="M35.545 23.2101H33.9651V21.6304H32.3855V23.2101H30.8057V24.7899H32.3855V26.3697H33.9651V24.7899H35.545V23.2101Z" fill="white"></path><path d="M41.4693 23.2101H39.8895V21.6304H38.3099V23.2101H36.73V24.7899H38.3099V26.3697H39.8895V24.7899H41.4693V23.2101Z" fill="white"></path></g><defs><clipPath id="clip0_231_522"><rect width="42.6543" height="48" fill="white"></rect></clipPath></defs></svg>